<svg xmlns="http://www.w3.org/2000/svg" width="126" height="84" viewBox="0 0 126 84"><g fill-rule="evenodd"><g fill="#000000"><path d="M126 83v1H0v-2h40V42H0v-2h40V0h2v40h40V0h2v40h40V0h2v83zm-2-1V42H84v40h40zM82 42H42v40h40V42zm-50-6a4 4 0 1 1 0-8 4 4 0 0 1 0 8zM8 12a4 4 0 1 1 0-8 4 4 0 0 1 0 8zm96 12a4 4 0 1 1 0-8 4 4 0 0 1 0 8zm-42 0a4 4 0 1 1 0-8 4 4 0 0 1 0 8zm30-12a4 4 0 1 1 0-8 4 4 0 0 1 0 8zM20 54a4 4 0 1 1 0-8 4 4 0 0 1 0 8zm12 24a4 4 0 1 1 0-8 4 4 0 0 1 0 8zM8 54a4 4 0 1 1 0-8 4 4 0 0 1 0 8zm24 0a4 4 0 1 1 0-8 4 4 0 0 1 0 8zM8 78a4 4 0 1 1 0-8 4 4 0 0 1 0 8zm12 0a4 4 0 1 1 0-8 4 4 0 0 1 0 8zm54 0a4 4 0 1 1 0-8 4 4 0 0 1 0 8zM50 54a4 4 0 1 1 0-8 4 4 0 0 1 0 8zm24 0a4 4 0 1 1 0-8 4 4 0 0 1 0 8zM50 78a4 4 0 1 1 0-8 4 4 0 0 1 0 8zm54-12a4 4 0 1 1 0-8 4 4 0 0 1 0 8zm12 12a4 4 0 1 1 0-8 4 4 0 0 1 0 8zM92 54a4 4 0 1 1 0-8 4 4 0 0 1 0 8zm24 0a4 4 0 1 1 0-8 4 4 0 0 1 0 8zM92 78a4 4 0 1 1 0-8 4 4 0 0 1 0 8zm24-42a4 4 0 1 1 0-8 4 4 0 0 1 0 8z"/></g></g></svg>