<svg xmlns="http://www.w3.org/2000/svg" viewBox="0 0 112 92"><path fill="#000000" fill-rule="evenodd" d="M72 10H40L16 20H0v8h16l24-14h32l24 14h16v-8H96L72 10zm0-8H40L16 4H0v8h16l24-6h32l24 6h16V4H96L72 2zm0 84H40l-24-6H0v8h16l24 2h32l24-2h16v-8H96l-24 6zm0-8H40L16 64H0v8h16l24 10h32l24-10h16v-8H96L72 78zm0-12H40L16 56H0v4h16l24 14h32l24-14h16v-4H96L72 66zm0-16H40l-24-2H0v4h16l24 6h32l24-6h16v-4H96l-24 2zm0-16H40l-24 6H0v4h16l24-2h32l24 2h16v-4H96l-24-6zm0-16H40L16 32H0v4h16l24-10h32l24 10h16v-4H96L72 18z"/></svg>