<svg xmlns="http://www.w3.org/2000/svg" viewBox="0 0 42 58"><path fill="#000000" fill-rule="evenodd" d="M12 18h12v18h6v4H18V22h-6v-4zm-6-2v-4H0V0h36v6h6v36h-6v4h6v12H6v-6H0V16h6zM34 2H2v8h24v24h8V2zM6 8a2 2 0 1 0 0-4 2 2 0 0 0 0 4zm8 0a2 2 0 1 0 0-4 2 2 0 0 0 0 4zm8 0a2 2 0 1 0 0-4 2 2 0 0 0 0 4zm8 0a2 2 0 1 0 0-4 2 2 0 0 0 0 4zm0 8a2 2 0 1 0 0-4 2 2 0 0 0 0 4zm0 8a2 2 0 1 0 0-4 2 2 0 0 0 0 4zm0 8a2 2 0 1 0 0-4 2 2 0 0 0 0 4zM2 50h32v-8H10V18H2v32zm28-6a2 2 0 1 0 0 4 2 2 0 0 0 0-4zm-8 0a2 2 0 1 0 0 4 2 2 0 0 0 0-4zm-8 0a2 2 0 1 0 0 4 2 2 0 0 0 0-4zm-8 0a2 2 0 1 0 0 4 2 2 0 0 0 0-4zm0-8a2 2 0 1 0 0 4 2 2 0 0 0 0-4zm0-8a2 2 0 1 0 0 4 2 2 0 0 0 0-4zm0-8a2 2 0 1 0 0 4 2 2 0 0 0 0-4z"/></svg>