<?xml version="1.0" encoding="UTF-8" standalone="no"?>
<svg
   xmlns:dc="http://purl.org/dc/elements/1.1/"
   xmlns:cc="http://creativecommons.org/ns#"
   xmlns:rdf="http://www.w3.org/1999/02/22-rdf-syntax-ns#"
   xmlns:svg="http://www.w3.org/2000/svg"
   xmlns="http://www.w3.org/2000/svg"
   xmlns:sodipodi="http://sodipodi.sourceforge.net/DTD/sodipodi-0.dtd"
   xmlns:inkscape="http://www.inkscape.org/namespaces/inkscape"
   sodipodi:docname="caveman.svg"
   inkscape:version="1.0 (4035a4fb49, 2020-05-01)"
   id="svg6985"
   version="1.1"
   viewBox="0 0 105.83335 84.666667"
   height="400"
   width="500">
  <defs
     id="defs6979">
    <clipPath
       id="clip98">
      <path
         d="m 73,353 h 7 v 10 h -7 z m 0,0"
         id="path4179" />
    </clipPath>
    <clipPath
       id="clip99">
      <path
         d="m 74.925781,353.94531 c -0.441406,0.38672 -1.488281,7.16016 -0.9375,8.04297 0.550781,0.87891 5.617188,1.15625 5.398438,-1.26562 -0.222657,-2.42579 -2.976563,-6.77735 -3.304688,-7.05469 -0.332031,-0.27344 -1.15625,0.27734 -1.15625,0.27734 z m 0,0"
         id="path4182" />
    </clipPath>
    <clipPath
       id="clip100">
      <path
         d="m 74.925781,353.94531 c -0.441406,0.38672 -1.488281,7.16016 -0.9375,8.04297 0.550781,0.87891 5.617188,1.15625 5.398438,-1.26562 -0.222657,-2.42579 -2.976563,-6.77735 -3.304688,-7.05469 -0.332031,-0.27344 -1.15625,0.27734 -1.15625,0.27734"
         id="path4185" />
    </clipPath>
    <linearGradient
       id="linear16"
       gradientUnits="userSpaceOnUse"
       x1="-0.52254599"
       y1="0"
       x2="1.172227"
       y2="0"
       gradientTransform="matrix(0.771177,6.11436,-6.11436,0.771177,76.0199,356.315)">
      <stop
         offset="0"
         style="stop-color:rgb(98.822021%,78.038025%,55.293274%);stop-opacity:1;"
         id="stop4188" />
      <stop
         offset="0.25"
         style="stop-color:rgb(98.822021%,78.038025%,55.293274%);stop-opacity:1;"
         id="stop4190" />
      <stop
         offset="0.375"
         style="stop-color:rgb(98.770142%,77.920532%,55.221558%);stop-opacity:1;"
         id="stop4192" />
      <stop
         offset="0.40625"
         style="stop-color:rgb(98.648071%,77.645874%,55.053711%);stop-opacity:1;"
         id="stop4194" />
      <stop
         offset="0.421875"
         style="stop-color:rgb(98.530579%,77.381897%,54.893494%);stop-opacity:1;"
         id="stop4196" />
      <stop
         offset="0.4375"
         style="stop-color:rgb(98.426819%,77.149963%,54.753113%);stop-opacity:1;"
         id="stop4198" />
      <stop
         offset="0.453125"
         style="stop-color:rgb(98.304749%,76.879883%,54.588318%);stop-opacity:1;"
         id="stop4200" />
      <stop
         offset="0.46875"
         style="stop-color:rgb(98.167419%,76.568604%,54.399109%);stop-opacity:1;"
         id="stop4202" />
      <stop
         offset="0.484375"
         style="stop-color:rgb(98.010254%,76.217651%,54.185486%);stop-opacity:1;"
         id="stop4204" />
      <stop
         offset="0.492188"
         style="stop-color:rgb(97.88208%,75.92926%,54.01001%);stop-opacity:1;"
         id="stop4206" />
      <stop
         offset="0.5"
         style="stop-color:rgb(97.790527%,75.721741%,53.884888%);stop-opacity:1;"
         id="stop4208" />
      <stop
         offset="0.507812"
         style="stop-color:rgb(97.692871%,75.50354%,53.752136%);stop-opacity:1;"
         id="stop4210" />
      <stop
         offset="0.515625"
         style="stop-color:rgb(97.590637%,75.274658%,53.613281%);stop-opacity:1;"
         id="stop4212" />
      <stop
         offset="0.523438"
         style="stop-color:rgb(97.483826%,75.035095%,53.466797%);stop-opacity:1;"
         id="stop4214" />
      <stop
         offset="0.53125"
         style="stop-color:rgb(97.370911%,74.784851%,53.314209%);stop-opacity:1;"
         id="stop4216" />
      <stop
         offset="0.539062"
         style="stop-color:rgb(97.254944%,74.5224%,53.155518%);stop-opacity:1;"
         id="stop4218" />
      <stop
         offset="0.546875"
         style="stop-color:rgb(97.132874%,74.250793%,52.989197%);stop-opacity:1;"
         id="stop4220" />
      <stop
         offset="0.554688"
         style="stop-color:rgb(97.006226%,73.96698%,52.816772%);stop-opacity:1;"
         id="stop4222" />
      <stop
         offset="0.5625"
         style="stop-color:rgb(96.875%,73.670959%,52.638245%);stop-opacity:1;"
         id="stop4224" />
      <stop
         offset="0.570312"
         style="stop-color:rgb(96.737671%,73.364258%,52.450562%);stop-opacity:1;"
         id="stop4226" />
      <stop
         offset="0.578125"
         style="stop-color:rgb(96.595764%,73.046875%,52.256775%);stop-opacity:1;"
         id="stop4228" />
      <stop
         offset="0.585938"
         style="stop-color:rgb(96.44928%,72.717285%,52.056885%);stop-opacity:1;"
         id="stop4230" />
      <stop
         offset="0.59375"
         style="stop-color:rgb(96.296692%,72.375488%,51.849365%);stop-opacity:1;"
         id="stop4232" />
      <stop
         offset="0.601562"
         style="stop-color:rgb(96.139526%,72.021484%,51.634216%);stop-opacity:1;"
         id="stop4234" />
      <stop
         offset="0.609375"
         style="stop-color:rgb(95.977783%,71.658325%,51.412964%);stop-opacity:1;"
         id="stop4236" />
      <stop
         offset="0.617188"
         style="stop-color:rgb(95.809937%,71.281433%,51.184082%);stop-opacity:1;"
         id="stop4238" />
      <stop
         offset="0.621094"
         style="stop-color:rgb(95.635986%,70.89386%,50.947571%);stop-opacity:1;"
         id="stop4240" />
      <stop
         offset="0.625"
         style="stop-color:rgb(95.549011%,70.697021%,50.828552%);stop-opacity:1;"
         id="stop4242" />
      <stop
         offset="0.628906"
         style="stop-color:rgb(95.457458%,70.49408%,50.704956%);stop-opacity:1;"
         id="stop4244" />
      <stop
         offset="0.632812"
         style="stop-color:rgb(95.367432%,70.291138%,50.58136%);stop-opacity:1;"
         id="stop4246" />
      <stop
         offset="0.636719"
         style="stop-color:rgb(95.274353%,70.082092%,50.454712%);stop-opacity:1;"
         id="stop4248" />
      <stop
         offset="0.640625"
         style="stop-color:rgb(95.181274%,69.873047%,50.328064%);stop-opacity:1;"
         id="stop4250" />
      <stop
         offset="0.644531"
         style="stop-color:rgb(95.085144%,69.657898%,50.196838%);stop-opacity:1;"
         id="stop4252" />
      <stop
         offset="0.648438"
         style="stop-color:rgb(94.989014%,69.442749%,50.065613%);stop-opacity:1;"
         id="stop4254" />
      <stop
         offset="0.652344"
         style="stop-color:rgb(94.889832%,69.221497%,49.931335%);stop-opacity:1;"
         id="stop4256" />
      <stop
         offset="0.65625"
         style="stop-color:rgb(94.792175%,69.000244%,49.797058%);stop-opacity:1;"
         id="stop4258" />
      <stop
         offset="0.660156"
         style="stop-color:rgb(94.689941%,68.772888%,49.658203%);stop-opacity:1;"
         id="stop4260" />
      <stop
         offset="0.664062"
         style="stop-color:rgb(94.589233%,68.547058%,49.520874%);stop-opacity:1;"
         id="stop4262" />
      <stop
         offset="0.667969"
         style="stop-color:rgb(94.485474%,68.313599%,49.378967%);stop-opacity:1;"
         id="stop4264" />
      <stop
         offset="0.671875"
         style="stop-color:rgb(94.381714%,68.080139%,49.237061%);stop-opacity:1;"
         id="stop4266" />
      <stop
         offset="0.675781"
         style="stop-color:rgb(94.274902%,67.840576%,49.092102%);stop-opacity:1;"
         id="stop4268" />
      <stop
         offset="0.679688"
         style="stop-color:rgb(94.168091%,67.601013%,48.947144%);stop-opacity:1;"
         id="stop4270" />
      <stop
         offset="0.683594"
         style="stop-color:rgb(94.058228%,67.355347%,48.797607%);stop-opacity:1;"
         id="stop4272" />
      <stop
         offset="0.6875"
         style="stop-color:rgb(93.94989%,67.10968%,48.648071%);stop-opacity:1;"
         id="stop4274" />
      <stop
         offset="0.691406"
         style="stop-color:rgb(93.836975%,66.85791%,48.493958%);stop-opacity:1;"
         id="stop4276" />
      <stop
         offset="0.695312"
         style="stop-color:rgb(93.725586%,66.60614%,48.34137%);stop-opacity:1;"
         id="stop4278" />
      <stop
         offset="0.699219"
         style="stop-color:rgb(93.609619%,66.348267%,48.184204%);stop-opacity:1;"
         id="stop4280" />
      <stop
         offset="0.703125"
         style="stop-color:rgb(93.495178%,66.090393%,48.028564%);stop-opacity:1;"
         id="stop4282" />
      <stop
         offset="0.707031"
         style="stop-color:rgb(93.37616%,65.826416%,47.866821%);stop-opacity:1;"
         id="stop4284" />
      <stop
         offset="0.710938"
         style="stop-color:rgb(93.258667%,65.562439%,47.706604%);stop-opacity:1;"
         id="stop4286" />
      <stop
         offset="0.714844"
         style="stop-color:rgb(93.138123%,65.290833%,47.541809%);stop-opacity:1;"
         id="stop4288" />
      <stop
         offset="0.71875"
         style="stop-color:rgb(93.017578%,65.020752%,47.377014%);stop-opacity:1;"
         id="stop4290" />
      <stop
         offset="0.722656"
         style="stop-color:rgb(92.893982%,64.744568%,47.209167%);stop-opacity:1;"
         id="stop4292" />
      <stop
         offset="0.726562"
         style="stop-color:rgb(92.770386%,64.468384%,47.041321%);stop-opacity:1;"
         id="stop4294" />
      <stop
         offset="0.730469"
         style="stop-color:rgb(92.643738%,64.18457%,46.868896%);stop-opacity:1;"
         id="stop4296" />
      <stop
         offset="0.734375"
         style="stop-color:rgb(92.518616%,63.902283%,46.696472%);stop-opacity:1;"
         id="stop4298" />
      <stop
         offset="0.738281"
         style="stop-color:rgb(92.388916%,63.612366%,46.520996%);stop-opacity:1;"
         id="stop4300" />
      <stop
         offset="0.742188"
         style="stop-color:rgb(92.260742%,63.322449%,46.34552%);stop-opacity:1;"
         id="stop4302" />
      <stop
         offset="0.746094"
         style="stop-color:rgb(92.127991%,63.026428%,46.165466%);stop-opacity:1;"
         id="stop4304" />
      <stop
         offset="0.75"
         style="stop-color:rgb(91.996765%,62.731934%,45.985413%);stop-opacity:1;"
         id="stop4306" />
      <stop
         offset="0.753906"
         style="stop-color:rgb(91.860962%,62.42981%,45.800781%);stop-opacity:1;"
         id="stop4308" />
      <stop
         offset="0.757812"
         style="stop-color:rgb(91.726685%,62.127686%,45.617676%);stop-opacity:1;"
         id="stop4310" />
      <stop
         offset="0.761719"
         style="stop-color:rgb(91.589355%,61.817932%,45.429993%);stop-opacity:1;"
         id="stop4312" />
      <stop
         offset="0.765625"
         style="stop-color:rgb(91.452026%,61.509705%,45.24231%);stop-opacity:1;"
         id="stop4314" />
      <stop
         offset="0.769531"
         style="stop-color:rgb(91.311646%,61.193848%,45.050049%);stop-opacity:1;"
         id="stop4316" />
      <stop
         offset="0.773438"
         style="stop-color:rgb(91.171265%,60.879517%,44.859314%);stop-opacity:1;"
         id="stop4318" />
      <stop
         offset="0.777344"
         style="stop-color:rgb(91.027832%,60.557556%,44.664001%);stop-opacity:1;"
         id="stop4320" />
      <stop
         offset="0.78125"
         style="stop-color:rgb(90.884399%,60.237122%,44.468689%);stop-opacity:1;"
         id="stop4322" />
      <stop
         offset="0.785156"
         style="stop-color:rgb(90.737915%,59.909058%,44.268799%);stop-opacity:1;"
         id="stop4324" />
      <stop
         offset="0.789062"
         style="stop-color:rgb(90.591431%,59.580994%,44.068909%);stop-opacity:1;"
         id="stop4326" />
      <stop
         offset="0.792969"
         style="stop-color:rgb(90.441895%,59.2453%,43.865967%);stop-opacity:1;"
         id="stop4328" />
      <stop
         offset="0.796875"
         style="stop-color:rgb(90.293884%,58.911133%,43.663025%);stop-opacity:1;"
         id="stop4330" />
      <stop
         offset="0.800781"
         style="stop-color:rgb(90.141296%,58.570862%,43.455505%);stop-opacity:1;"
         id="stop4332" />
      <stop
         offset="0.804688"
         style="stop-color:rgb(89.988708%,58.230591%,43.247986%);stop-opacity:1;"
         id="stop4334" />
      <stop
         offset="0.808594"
         style="stop-color:rgb(89.833069%,57.88269%,43.035889%);stop-opacity:1;"
         id="stop4336" />
      <stop
         offset="0.8125"
         style="stop-color:rgb(89.678955%,57.53479%,42.825317%);stop-opacity:1;"
         id="stop4338" />
      <stop
         offset="0.816406"
         style="stop-color:rgb(89.520264%,57.180786%,42.608643%);stop-opacity:1;"
         id="stop4340" />
      <stop
         offset="0.820312"
         style="stop-color:rgb(89.363098%,56.826782%,42.393494%);stop-opacity:1;"
         id="stop4342" />
      <stop
         offset="0.824219"
         style="stop-color:rgb(89.201355%,56.465149%,42.173767%);stop-opacity:1;"
         id="stop4344" />
      <stop
         offset="0.828125"
         style="stop-color:rgb(89.041138%,56.105042%,41.955566%);stop-opacity:1;"
         id="stop4346" />
      <stop
         offset="0.832031"
         style="stop-color:rgb(88.877869%,55.737305%,41.731262%);stop-opacity:1;"
         id="stop4348" />
      <stop
         offset="0.835938"
         style="stop-color:rgb(88.7146%,55.371094%,41.508484%);stop-opacity:1;"
         id="stop4350" />
      <stop
         offset="0.839844"
         style="stop-color:rgb(88.546753%,54.995728%,41.281128%);stop-opacity:1;"
         id="stop4352" />
      <stop
         offset="0.84375"
         style="stop-color:rgb(88.380432%,54.621887%,41.053772%);stop-opacity:1;"
         id="stop4354" />
      <stop
         offset="0.847656"
         style="stop-color:rgb(88.21106%,54.241943%,40.821838%);stop-opacity:1;"
         id="stop4356" />
      <stop
         offset="0.851562"
         style="stop-color:rgb(88.041687%,53.862%,40.591431%);stop-opacity:1;"
         id="stop4358" />
      <stop
         offset="0.855469"
         style="stop-color:rgb(87.867737%,53.474426%,40.354919%);stop-opacity:1;"
         id="stop4360" />
      <stop
         offset="0.859375"
         style="stop-color:rgb(87.695312%,53.086853%,40.119934%);stop-opacity:1;"
         id="stop4362" />
      <stop
         offset="0.863281"
         style="stop-color:rgb(87.519836%,52.693176%,39.880371%);stop-opacity:1;"
         id="stop4364" />
      <stop
         offset="0.867188"
         style="stop-color:rgb(87.34436%,52.2995%,39.640808%);stop-opacity:1;"
         id="stop4366" />
      <stop
         offset="0.871094"
         style="stop-color:rgb(87.165833%,51.898193%,39.396667%);stop-opacity:1;"
         id="stop4368" />
      <stop
         offset="0.875"
         style="stop-color:rgb(86.987305%,51.496887%,39.154053%);stop-opacity:1;"
         id="stop4370" />
      <stop
         offset="0.878906"
         style="stop-color:rgb(86.805725%,51.089478%,38.905334%);stop-opacity:1;"
         id="stop4372" />
      <stop
         offset="0.882812"
         style="stop-color:rgb(86.624146%,50.682068%,38.658142%);stop-opacity:1;"
         id="stop4374" />
      <stop
         offset="0.886719"
         style="stop-color:rgb(86.439514%,50.267029%,38.406372%);stop-opacity:1;"
         id="stop4376" />
      <stop
         offset="0.890625"
         style="stop-color:rgb(86.254883%,49.853516%,38.154602%);stop-opacity:1;"
         id="stop4378" />
      <stop
         offset="0.894531"
         style="stop-color:rgb(86.0672%,49.435425%,37.89978%);stop-opacity:1;"
         id="stop4380" />
      <stop
         offset="0.898438"
         style="stop-color:rgb(85.881042%,49.01886%,37.646484%);stop-opacity:1;"
         id="stop4382" />
      <stop
         offset="0.90625"
         style="stop-color:rgb(85.881042%,49.01886%,37.646484%);stop-opacity:1;"
         id="stop4384" />
      <stop
         offset="0.9375"
         style="stop-color:rgb(85.881042%,49.01886%,37.646484%);stop-opacity:1;"
         id="stop4386" />
      <stop
         offset="1"
         style="stop-color:rgb(85.881042%,49.01886%,37.646484%);stop-opacity:1;"
         id="stop4388" />
    </linearGradient>
  </defs>
  <sodipodi:namedview
     scale-x="0.8"
     inkscape:window-maximized="1"
     inkscape:window-y="0"
     inkscape:window-x="0"
     inkscape:window-height="1041"
     inkscape:window-width="1920"
     units="px"
     showgrid="false"
     inkscape:document-rotation="0"
     inkscape:current-layer="layer1"
     inkscape:document-units="mm"
     inkscape:cy="175.17491"
     inkscape:cx="285.5662"
     inkscape:zoom="1.7255599"
     inkscape:pageshadow="2"
     inkscape:pageopacity="0.0"
     borderopacity="1.0"
     bordercolor="#666666"
     pagecolor="#ffffff"
     id="base" />
  <metadata
     id="metadata6982">
    <rdf:RDF>
      <cc:Work
         rdf:about="">
        <dc:format>image/svg+xml</dc:format>
        <dc:type
           rdf:resource="http://purl.org/dc/dcmitype/StillImage" />
        <dc:title></dc:title>
      </cc:Work>
    </rdf:RDF>
  </metadata>
  <g
     id="layer1"
     inkscape:groupmode="layer"
     inkscape:label="Layer 1">
    <path
       style="fill:#fac78c;fill-opacity:1;fill-rule:nonzero;stroke:none;stroke-width:0.760821"
       d="m 26.243973,78.704183 c -0.386365,0.255585 -5.515962,0.312053 -8.065913,0.139686 -0.769734,-0.05347 -1.307648,-0.130758 -1.402756,-0.225867 -0.422016,-0.416075 -0.422016,-4.775945 0,-8.550336 0.416084,-3.771428 3.016543,-5.783445 3.016543,-5.783445 l -0.754875,-2.514278 5.533777,-0.502259 c 0,0 0.719226,1.589997 0.909422,3.343456 0.09511,0.921312 0.04464,1.8872 -0.326908,2.692597 -1.087733,2.347854 -1.925834,9.216051 -1.925834,9.216051 0,0 3.518809,1.845585 3.016544,2.184395"
       id="path5539" />
    <path
       style="fill:#f0b075;fill-opacity:1;fill-rule:nonzero;stroke:none;stroke-width:0.760821"
       d="m 18.17806,78.843863 c -0.769734,-0.05347 -1.307648,-0.130758 -1.402756,-0.225868 -0.210922,-0.208031 -0.318001,-1.402763 -0.318001,-3.016541 0,-1.613771 0.106976,-3.646599 0.318001,-5.533793 0.416084,-3.771423 3.016543,-5.78344 3.016543,-5.78344 l -0.481453,-1.607824 c 1.114476,0.06239 2.199233,0.08915 3.248341,0.08915 0.867819,0 1.71185,-0.0179 2.529139,-0.05051 0.160455,0.549813 0.317999,1.209593 0.392297,1.896113 -0.424992,-0.312058 -0.924281,-0.454712 -1.456265,-0.454712 -2.330013,0 -5.337628,2.722321 -6.077643,5.786405 -0.719226,2.971966 -0.151614,6.903867 0.231797,8.901026"
       id="path5541" />
    <path
       style="fill:#fac78c;fill-opacity:1;fill-rule:nonzero;stroke:none;stroke-width:0.760821"
       d="m 37.977267,78.698237 c -0.365532,0.246672 -4.963168,0.312058 -7.620109,0.166429 -1.004509,-0.05049 -1.73264,-0.136711 -1.848561,-0.252612 -0.419039,-0.427961 -0.419039,-4.835381 0,-8.654353 0.416085,-3.815992 3.016544,-5.85476 3.016544,-5.85476 l -0.754875,-2.544003 5.530822,-0.508202 c 0,0 0.312047,0.698413 0.585469,1.679154 0.347718,1.292806 0.624116,3.078955 0.0065,4.425257 -1.093664,2.380543 -1.931765,9.334927 -1.931765,9.334927 0,0 3.518809,1.866396 3.016544,2.208166"
       id="path5543" />
    <path
       style="fill:#f0b075;fill-opacity:1;fill-rule:nonzero;stroke:none;stroke-width:0.760821"
       d="m 30.357158,78.864662 c -1.004509,-0.05049 -1.73264,-0.136711 -1.848561,-0.252612 -0.210921,-0.213984 -0.315023,-1.420595 -0.315023,-3.055172 0,-1.634583 0.103946,-3.691175 0.315023,-5.599181 0.416085,-3.815993 3.016544,-5.85476 3.016544,-5.85476 l -0.57061,-1.922857 c 2.315154,-0.323946 4.160739,-0.722191 5.391135,-1.028303 0.09511,0.228845 0.329883,0.817288 0.540891,1.578109 -0.517102,-0.329885 -1.055039,-0.484431 -1.58107,-0.484431 -1.518678,0 -2.942247,1.283886 -3.530691,3.295915 -0.85889,2.948182 -1.955552,8.051041 -1.417638,13.323292"
       id="path5545" />
    <path
       style="fill:#e8a166;fill-opacity:1;fill-rule:nonzero;stroke:none;stroke-width:0.760821"
       d="m 57.517933,30.998255 c 1.667249,-0.534948 1.69699,-2.012016 1.69699,-2.012016 l -1.97934,-0.817291 -0.282329,2.766898 0.564679,0.06239"
       id="path5547" />
    <path
       style="fill:#fac78c;fill-opacity:1;fill-rule:nonzero;stroke:none;stroke-width:0.760821"
       d="m 57.425778,42.493807 c -0.142555,0.332859 -0.294211,0.647885 -0.463617,0.951027 -3.096771,5.69725 -10.461295,6.526424 -15.629539,0.638969 l -0.25261,-12.072109 c 0,0 1.396805,1.604862 3.42963,2.942245 1.62567,1.075845 3.655519,1.976355 5.709136,1.756425 6.211399,-0.68058 5.783453,-6.707712 5.783453,-6.707712 l 1.925812,0.751905 c 0,0 2.261669,5.200934 -0.502265,11.73925"
       id="path5549" />
    <path
       style="fill:#f0b075;fill-opacity:1;fill-rule:nonzero;stroke:none;stroke-width:0.760821"
       d="m 49.377723,48.125671 c -2.490512,0 -5.132573,-1.075848 -7.420985,-3.373173 1.301718,-4.784864 0.742991,-9.034763 0.546843,-10.809025 -0.02674,-0.228847 -0.06233,-0.436879 -0.113009,-0.63006 0.567633,0.505233 1.289813,1.096659 2.119006,1.640526 -1.236349,1.958521 -0.965904,11.685753 5.973627,11.688722 0.365555,0 0.75192,-0.02974 1.159077,-0.08618 2.499419,-0.350695 4.193433,-1.542447 5.319814,-3.111641 -0.540912,0.992629 -1.209607,1.839644 -1.976365,2.526164 -1.218491,1.093681 -2.677731,1.78912 -4.240987,2.044711 -0.448758,0.07434 -0.906445,0.109972 -1.367107,0.109972"
       id="path5551" />
    <path
       style="fill:#5c4a57;fill-opacity:1;fill-rule:nonzero;stroke:none;stroke-width:0.760821"
       d="m 52.331853,25.624949 c 0.335835,0.725162 7.857859,4.588708 9.052585,4.65112 1.194725,0.06239 1.759404,-0.472539 1.887207,-0.787566 0.124872,-0.31206 -9.177412,-4.588708 -10.027396,-4.68381 -0.849982,-0.09213 -1.099638,0.410128 -0.912396,0.820256"
       id="path5553" />
    <path
       style="fill:#ab6e42;fill-opacity:1;fill-rule:nonzero;stroke:none;stroke-width:0.760821"
       d="m 40.411318,48.779506 c -3.188926,6.285692 -2.34785,11.899732 -2.34785,11.899732 0,0 -4.517385,1.47409 -11.355878,1.94663 -2.526161,0.169406 -5.370323,0.211008 -8.425493,-0.01488 C 10.90567,51.799039 15.431984,38.21717 15.431984,38.21717 l 3.518787,-9.049619 c 1.916926,-0.433906 4.969119,-0.716238 8.107514,-0.805401 4.823503,-0.130759 9.866919,0.205077 11.341019,1.221478 2.431053,1.676182 3.851646,2.098204 4.104277,4.359868 0.25261,2.264632 1.09071,8.550332 -2.092263,14.83603"
       id="path5555" />
    <path
       style="fill:#996138;fill-opacity:1;fill-rule:nonzero;stroke:none;stroke-width:0.760821"
       d="m 22.558735,62.765555 c -1.367107,0 -2.796607,-0.04456 -4.276638,-0.154546 -3.313752,-4.856184 -4.226149,-10.274066 -4.223173,-14.764705 0,-3.40289 0.523077,-6.273807 0.924281,-7.973774 0.326928,0.05941 0.644927,0.0862 0.956974,0.0862 0.558727,0 1.102594,-0.08323 1.670248,-0.231815 0.401204,-0.104013 0.799453,-0.279368 1.185819,-0.517125 2.121981,-1.292804 3.87841,-4.374727 3.590129,-7.070296 -0.196256,-1.890165 -0.8381,-2.734205 -2.003107,-3.239437 1.842609,-0.282333 4.232059,-0.469572 6.675017,-0.537923 -2.995731,0.463621 -2.211138,5.810185 -5.215798,9.771808 -3.02545,3.991342 -3.720887,18.583676 4.865103,24.49193 -1.301717,0.08618 -2.69259,0.139688 -4.148855,0.139688"
       id="path5557" />
    <path
       style="fill:#e8a166;fill-opacity:1;fill-rule:nonzero;stroke:none;stroke-width:0.760821"
       d="m 21.71768,12.735558 c 0.08325,-0.124828 0.879703,-1.717801 1.298742,-1.88423 0.419039,-0.169405 1.132312,0.838098 1.132312,0.838098 l -2.431054,1.046132"
       id="path5559" />
    <path
       style="fill:#fac78c;fill-opacity:1;fill-rule:nonzero;stroke:none;stroke-width:0.760821"
       d="m 25.994318,13.615257 c -0.754875,0.291251 -1.423569,-0.793515 -1.423569,-0.793515 l -1.218491,0.668688 c 0,0 0.588445,0.921308 0.377436,2.766898 -0.210921,1.845585 -3.857598,7.165398 -8.966404,8.966408 -4.8651028,1.714818 -12.1047988,0.160499 -11.9086504,-2.906575 0.00862,-0.160477 0.038605,-0.320976 0.08907,-0.487405 0.6686949,-2.178448 1.8010063,-3.979458 7.6230854,-4.315285 l 0.187199,-0.0088 0.01509,-0.0061 c 4.98993,-0.297219 9.697511,-1.087759 10.155198,-1.872356 0.457687,-0.793516 -0.549819,-1.295781 -0.377438,-2.136846 0.166495,-0.838092 4.024028,-2.428088 4.024028,-2.428088 0,0 2.175489,2.261658 1.423569,2.552915"
       id="path5561" />
    <path
       style="fill:#f0b075;fill-opacity:1;fill-rule:nonzero;stroke:none;stroke-width:0.760821"
       d="m 2.8546396,22.317161 c 0.00862,-0.160477 0.038605,-0.320976 0.08907,-0.487405 0.6686949,-2.178448 1.8010063,-3.979458 7.6230854,-4.315285 l 0.187199,-0.0088 c -2.3329898,0.460661 -5.7388541,1.257142 -6.5917927,4.71056 l -1.2185132,-0.38635 c -0.026743,0.157522 -0.047663,0.317999 -0.068367,0.484428 -0.00647,0.003 -0.015097,0.003 -0.021566,0.003"
       id="path5563" />
    <path
       style="fill:#94573f;fill-opacity:1;fill-rule:nonzero;stroke:none;stroke-width:0.760821"
       d="m 14.510658,18.162358 c -0.08023,0 -0.154632,-0.04755 -0.181375,-0.127804 -0.576541,-1.774261 -3.096771,-1.711849 -3.123513,-1.714825 -0.103946,0.003 -0.193237,-0.07727 -0.196041,-0.18129 -0.0022,-0.106998 0.08023,-0.193172 0.18418,-0.196148 0.116027,0 2.829322,-0.06535 3.495041,1.973382 0.03278,0.101038 -0.02157,0.205054 -0.121851,0.237759 l -0.05651,0.0088"
       id="path5565" />
    <path
       style="fill:#94573f;fill-opacity:1;fill-rule:nonzero;stroke:none;stroke-width:0.760821"
       d="m 10.822467,19.169853 c -0.08906,0 -0.169514,-0.06239 -0.187198,-0.154546 C 10.448071,18.04942 8.5251916,17.371816 7.8000146,17.193495 7.6988653,17.169747 7.6395588,17.068668 7.6632823,16.96763 c 0.023726,-0.104013 0.1278899,-0.160477 0.2288435,-0.139687 0.1158125,0.02679 2.8441822,0.716245 3.1146272,2.116036 0.02157,0.104013 -0.04766,0.202101 -0.148594,0.222898 l -0.03559,0.003"
       id="path5567" />
    <path
       style="fill:#94573f;fill-opacity:1;fill-rule:nonzero;stroke:none;stroke-width:0.760821"
       d="M 7.2174792,19.128242 7.0658658,19.047989 C 6.3763592,18.093985 5.1816332,18.120736 5.1697505,18.120736 c -0.1158126,-0.003 -0.190218,-0.07727 -0.1932373,-0.181289 -0.00221,-0.104013 0.077214,-0.193172 0.1813755,-0.196148 0.059524,0 1.4087094,-0.03271 2.2111386,1.084766 0.062333,0.08618 0.044643,0.202079 -0.041625,0.264499 l -0.1099939,0.03567"
       id="path5569" />
    <path
       style="fill:#fac78c;fill-opacity:1;fill-rule:nonzero;stroke:none;stroke-width:0.760821"
       d="M 18.796246,39.209786 C 18.40988,39.447543 18.011631,39.62289 17.610427,39.72691 15.012923,40.395595 12.876081,39.76854 8.013956,35.705843 3.1488514,31.637233 2.355351,25.434745 2.943796,21.829756 l 1.2185136,0.386353 8.1669284,2.588584 c 0,0 1.679177,2.680702 4.903752,3.310762 3.227552,0.627086 4.82348,0.838092 5.153385,4.024034 0.288281,2.69557 -1.468148,5.777492 -3.590129,7.070297"
       id="path5571" />
    <path
       style="fill:#f0b075;fill-opacity:1;fill-rule:nonzero;stroke:none;stroke-width:0.760821"
       d="m 15.940179,39.958725 c -1.991202,0 -4.125088,-1.078824 -7.926223,-4.252882 -3.9854025,-3.334539 -5.2395657,-8.098595 -5.2365895,-11.697642 0,-0.790539 0.059524,-1.527587 0.1664942,-2.178445 l 1.218513,0.386353 c -0.1516122,6.089553 6.4461743,16.913433 14.6339363,16.993677 -0.386366,0.237757 -0.784615,0.413104 -1.185818,0.517124 -0.567655,0.148594 -1.111522,0.231815 -1.670247,0.231815"
       id="path5573" />
    <path
       style="fill:#94573f;fill-opacity:1;fill-rule:nonzero;stroke:none;stroke-width:0.760821"
       d="m 49.128068,48.966737 -0.145574,-0.06832 c -0.06535,-0.07727 -0.05651,-0.196148 0.02372,-0.264506 0.01509,-0.01186 1.480052,-1.269029 1.034249,-2.383511 -0.03861,-0.09511 0.0086,-0.208032 0.106976,-0.246675 0.09511,-0.03567 0.205099,0.0088 0.243702,0.106998 0.546844,1.367105 -1.072873,2.752037 -1.14124,2.811482 l -0.121851,0.04458"
       id="path5575" />
    <path
       style="fill:#94573f;fill-opacity:1;fill-rule:nonzero;stroke:none;stroke-width:0.760821"
       d="m 23.717812,70.364861 c -0.118832,0 -0.237773,-0.0088 -0.353671,-0.03269 -0.407157,-0.08025 -0.734063,-0.303139 -0.965883,-0.665716 -0.05651,-0.08618 -0.03278,-0.202078 0.05651,-0.258558 0.08627,-0.05644 0.202079,-0.03269 0.258562,0.05644 0.178356,0.273416 0.416085,0.436869 0.72218,0.499289 0.918349,0.178313 2.104146,-0.630058 2.116051,-0.638975 0.08325,-0.05644 0.202079,-0.03567 0.261516,0.05049 0.05953,0.08618 0.03861,0.20208 -0.04745,0.261537 -0.04766,0.03269 -1.066922,0.72813 -2.047685,0.72813"
       id="path5577" />
    <path
       style="fill:#94573f;fill-opacity:1;fill-rule:nonzero;stroke:none;stroke-width:0.760821"
       d="m 23.521663,72.34716 c -0.490382,0 -1.016412,-0.13671 -1.503818,-0.540899 -0.08023,-0.06537 -0.09208,-0.184265 -0.02674,-0.26451 0.06535,-0.08023 0.184179,-0.09214 0.264493,-0.0267 1.298741,1.069907 2.942246,-0.08025 2.957106,-0.09213 0.08627,-0.05941 0.202079,-0.0416 0.264493,0.04456 0.05952,0.08618 0.03861,0.202079 -0.04464,0.261532 -0.01084,0.01186 -0.87968,0.618166 -1.910953,0.618166"
       id="path5579" />
    <path
       style="fill:#94573f;fill-opacity:1;fill-rule:nonzero;stroke:none;stroke-width:0.760821"
       d="m 23.304703,74.415645 c -0.410132,0 -0.873749,-0.106998 -1.352248,-0.416083 -0.08908,-0.05941 -0.11301,-0.175337 -0.05651,-0.26153 0.05651,-0.08618 0.172318,-0.112923 0.258563,-0.05644 1.289834,0.832146 2.416193,-0.03567 2.463747,-0.07425 0.08023,-0.06239 0.19906,-0.05051 0.264515,0.03269 0.06535,0.08025 0.05047,0.199125 -0.02976,0.2645 -0.0086,0.0061 -0.653835,0.51118 -1.548397,0.51118"
       id="path5581" />
    <path
       style="fill:#94573f;fill-opacity:1;fill-rule:nonzero;stroke:none;stroke-width:0.760821"
       d="m 35.629418,75.524182 c -0.344742,0 -0.754875,-0.08323 -1.185797,-0.350689 -0.08907,-0.05347 -0.115813,-0.169406 -0.06233,-0.258557 0.05349,-0.08915 0.169514,-0.118875 0.258563,-0.06239 0.971813,0.597362 1.780194,0.106987 1.812889,0.08618 0.08907,-0.05347 0.205099,-0.02972 0.261539,0.05941 0.05349,0.08618 0.02976,0.202101 -0.05952,0.258563 -0.02674,0.01488 -0.433921,0.267478 -1.025342,0.267478"
       id="path5583" />
    <path
       style="fill:#94573f;fill-opacity:1;fill-rule:nonzero;stroke:none;stroke-width:0.760821"
       d="m 35.311418,73.657787 c -0.261516,0 -0.526031,-0.07128 -0.790524,-0.246668 -0.08627,-0.05941 -0.109994,-0.175337 -0.05047,-0.26153 0.05651,-0.0862 0.172318,-0.112944 0.261517,-0.05346 1.090711,0.725162 2.410264,-1.025325 2.425123,-1.043158 0.06233,-0.08323 0.178356,-0.101039 0.264515,-0.0416 0.08325,0.06239 0.101149,0.181289 0.03861,0.264511 -0.05047,0.06832 -1.037224,1.381957 -2.148724,1.381957"
       id="path5585" />
    <path
       style="fill:#94573f;fill-opacity:1;fill-rule:nonzero;stroke:none;stroke-width:0.760821"
       d="m 36.440776,71.262394 c -0.48443,0 -1.028297,-0.145639 -1.456265,-0.653834 -0.06837,-0.08025 -0.05651,-0.196149 0.02373,-0.264504 0.0772,-0.06839 0.196255,-0.05644 0.264514,0.02071 0.814313,0.959947 2.145749,0.318005 2.202211,0.288288 0.09208,-0.04456 0.208117,-0.0088 0.252631,0.08618 0.04766,0.09213 0.0086,0.205055 -0.08325,0.252612 -0.0086,0.0028 -0.552796,0.270449 -1.203654,0.270449"
       id="path5587" />
    <path
       style="fill:#7f5130;fill-opacity:1;fill-rule:nonzero;stroke:none;stroke-width:0.760821"
       d="m 17.863037,51.962473 c -0.588445,0.169405 -1.676179,-1.84262 -1.676179,-1.84262 0.08325,0.419053 0.838101,2.431071 1.676179,2.514281 0.8381,0.08323 1.84263,-2.683677 1.84263,-2.683677 0,0 -1.257139,1.845586 -1.84263,2.012016"
       id="path5589" />
    <path
       style="fill:#7f5130;fill-opacity:1;fill-rule:nonzero;stroke:none;stroke-width:0.760821"
       d="m 29.765736,57.243652 c -0.588445,0.169407 -1.676178,-1.84262 -1.676178,-1.84262 0.08325,0.419046 0.838099,2.431064 1.676178,2.514281 0.8381,0.0832 1.84263,-2.683688 1.84263,-2.683688 0,0 -1.25714,1.845596 -1.84263,2.012027"
       id="path5591" />
    <path
       style="fill:#7f5130;fill-opacity:1;fill-rule:nonzero;stroke:none;stroke-width:0.760821"
       d="m 26.746238,49.364981 c -0.585491,0.16643 -1.6762,-1.842621 -1.6762,-1.842621 0.08627,0.419046 0.8381,2.428097 1.6762,2.514283 0.838079,0.08321 1.845585,-2.683678 1.845585,-2.683678 0,0 -1.25714,1.845586 -1.845585,2.012016"
       id="path5593" />
    <path
       style="fill:#7f5130;fill-opacity:1;fill-rule:nonzero;stroke:none;stroke-width:0.760821"
       d="m 34.71109,50.957952 c -0.588445,0.166429 -1.676178,-1.84262 -1.676178,-1.84262 0.08325,0.416079 0.838077,2.428095 1.676178,2.511307 0.838099,0.08618 1.842608,-2.680704 1.842608,-2.680704 0,0 -1.25714,1.845587 -1.842608,2.012017"
       id="path5595" />
    <path
       style="fill:#7f5130;fill-opacity:1;fill-rule:nonzero;stroke:none;stroke-width:0.760821"
       d="m 30.853491,44.083803 c -0.58549,0.169406 -1.6762,-1.842612 -1.6762,-1.842612 0.08325,0.419046 0.838101,2.431062 1.6762,2.514272 0.838079,0.08323 1.845585,-2.683679 1.845585,-2.683679 0,0 -1.25714,1.84559 -1.845585,2.012019"
       id="path5597" />
    <path
       style="fill:#7f5130;fill-opacity:1;fill-rule:nonzero;stroke:none;stroke-width:0.760821"
       d="m 23.058024,40.648219 c -0.585469,0.166429 -1.676178,-1.845594 -1.676178,-1.845594 0.08325,0.42202 0.838099,2.431069 1.676178,2.517255 0.838101,0.08321 1.845585,-2.683684 1.845585,-2.683684 0,0 -1.25714,1.845592 -1.845585,2.012023"
       id="path5599" />
    <path
       style="fill:#7f5130;fill-opacity:1;fill-rule:nonzero;stroke:none;stroke-width:0.760821"
       d="m 38.565733,38.802625 c -0.585489,0.169406 -1.6762,-1.842613 -1.6762,-1.842613 0.08325,0.419046 0.8381,2.431062 1.6762,2.514281 0.838079,0.08321 1.845585,-2.683686 1.845585,-2.683686 0,0 -1.260115,1.845589 -1.845585,2.012018"
       id="path5601" />
    <path
       style="fill:#94573f;fill-opacity:1;fill-rule:nonzero;stroke:none;stroke-width:0.760821"
       d="m 33.495553,12.108472 c -1.384922,-2.1398107 -5.99444,-1.049105 -7.25158,1.340356 -1.970412,0.754873 -2.766888,2.095226 -2.012014,2.178445 -1.6762,3.729811 -1.129357,5.281172 -0.41906,4.737306 -1.046132,3.518802 -0.58547,6.24409 0.294233,5.489212 0.335836,3.563386 1.215537,6.998968 2.095239,5.741831 0.166495,2.891719 3.604989,5.194985 4.737301,4.359869 1.298741,1.676182 4.775948,-0.127803 4.983979,-0.796489 0.754875,0.96292 3.01952,-2.600467 2.850114,-5.492185 1.215537,0.965886 0.630047,-5.655642 -0.08325,-6.45213 1.34332,0.710304 0.921304,-1.676182 -0.585468,-4.778914 1.423569,0.543873 0.04162,-2.933327 -2.09524,-4.232072 1.340344,0.08323 -0.879702,-2.136839 -2.514279,-2.095229"
       id="path5603" />
    <path
       style="fill:#fac78c;fill-opacity:1;fill-rule:nonzero;stroke:none;stroke-width:0.760821"
       d="m 26.202371,15.87989 c -0.719224,0.490373 -2.220067,7.626055 0.335814,9.679675 2.555903,2.053627 6.077665,-1.717793 6.077665,-1.717793 0,0 0.962928,0.63006 2.136842,1.090717 1.170959,0.460645 2.808512,-0.754882 2.680708,-3.940825 -0.124871,-3.185942 -2.472655,-5.991474 -3.058146,-6.41052 -0.588445,-0.419045 -5.658604,-0.419045 -8.172883,1.298746"
       id="path5605" />
    <path
       style="fill:#4a2b1e;fill-opacity:1;fill-rule:nonzero;stroke:none;stroke-width:0.760821"
       d="m 29.554729,20.489399 c -0.430922,0.136712 -0.25261,1.551362 0.335835,1.551362 0.58549,0 0.460662,-1.803977 -0.335835,-1.551362"
       id="path5607" />
    <path
       style="fill:#ffffff;fill-opacity:1;fill-rule:nonzero;stroke:none;stroke-width:0.760821"
       d="m 35.549189,27.360576 c -2.808511,3.313738 -7.207021,1.468149 -7.207021,1.468149 0,0 0.01509,-0.329885 0.09511,-0.742987 0.03861,-0.208031 0.09511,-0.436879 0.169513,-0.650861 0.106976,-0.285309 0.246679,-0.546841 0.442827,-0.701387 2.139818,1.845586 5.533799,1.468151 6.499681,0.627086"
       id="path5609" />
    <path
       style="fill:#c5d4d4;fill-opacity:1;fill-rule:nonzero;stroke:none;stroke-width:0.760821"
       d="m 31.611343,28.537477 c -1.126382,0.115899 -2.332991,-0.175358 -3.174067,-0.451739 0.03861,-0.208031 0.09511,-0.436879 0.169514,-0.650861 0.650859,0.499289 1.691059,1.078822 3.00466,1.1026"
       id="path5611" />
    <path
       style="fill:#94573f;fill-opacity:1;fill-rule:nonzero;stroke:none;stroke-width:0.760821"
       d="m 27.376286,19.273873 c 0.558725,0 2.766909,-2.136846 2.933339,-2.264641 0.166494,-0.124828 -1.257139,-1.967434 -1.257139,-1.967434 l 0.249633,1.509754 c 0,0 -0.879702,-0.841065 -1.17096,-0.796483 -0.294211,0.04162 -1.845584,2.009044 -1.887186,2.261658 -0.04162,0.252617 0.754875,1.257146 1.132313,1.257146"
       id="path5613" />
    <path
       style="fill:#94573f;fill-opacity:1;fill-rule:nonzero;stroke:none;stroke-width:0.760821"
       d="m 32.740678,17.303457 0.543866,2.22303 c 0,0 3.227552,-0.460654 3.310777,-0.71327 0.08325,-0.252615 -0.294233,-1.215536 -0.502264,-1.426541 -0.208118,-0.208032 -2.178444,-0.377444 -2.347849,-0.291258 -0.166495,0.08323 -0.208119,1.506784 -0.208119,1.506784 l -0.796498,-1.298745"
       id="path5615" />
    <g
       transform="matrix(0.76082212,0,0,0.76082212,-25.604857,-249.67974)"
       clip-path="url(#clip98)"
       clip-rule="nonzero"
       id="g5623">
      <g
         clip-path="url(#clip99)"
         clip-rule="nonzero"
         id="g5621">
        <g
           clip-path="url(#clip100)"
           clip-rule="nonzero"
           id="g5619">
          <path
             style="fill:url(#linear16);fill-rule:nonzero;stroke:none"
             d="m 79.507812,352.62891 -7.28125,0.91796 1.308594,10.36329 7.28125,-0.91797 z m 0,0"
             id="path5617" />
        </g>
      </g>
    </g>
    <path
       style="fill:#4a2b1e;fill-opacity:1;fill-rule:nonzero;stroke:none;stroke-width:0.760821"
       d="m 35.358973,20.385379 c -0.356627,-0.169405 -1.215538,-0.127804 -1.173915,0.921311 0.190218,-0.419046 1.028297,-0.962913 1.173915,-0.921311"
       id="path5625" />
    <path
       style="fill:#94573f;fill-opacity:1;fill-rule:nonzero;stroke:none;stroke-width:0.760821"
       d="m 54.05261,48.717088 -0.07441,-0.003 c -0.103946,-0.0061 -0.184178,-0.09213 -0.178356,-0.199125 0.0065,-0.101039 0.103958,-0.190196 0.199061,-0.175358 0.285304,0.01186 0.457686,-0.08618 0.537936,-0.323944 0.258561,-0.748937 -0.472546,-2.439979 -1.664295,-3.272129 -0.08325,-0.06239 -0.103947,-0.178313 -0.04464,-0.264506 0.05953,-0.08618 0.175337,-0.106998 0.261517,-0.04755 1.230397,0.864843 2.139817,2.734205 1.803983,3.709009 -0.130695,0.374467 -0.427947,0.576558 -0.841055,0.576558"
       id="path5627" />
    <path
       style="fill:#94573f;fill-opacity:1;fill-rule:nonzero;stroke:none;stroke-width:0.760821"
       d="m 57.089965,46.286026 -0.163475,-0.09511 c -0.05349,-0.09213 -0.02157,-0.208031 0.06837,-0.258558 0.142554,-0.08025 0.249632,-0.576558 0.101149,-1.1977 -0.07721,-0.332861 -0.416085,-1.417624 -1.441404,-1.468151 -0.103947,-0.0061 -0.18418,-0.09213 -0.178357,-0.199125 0.0065,-0.101039 0.09511,-0.175336 0.196257,-0.178312 1.025319,0.05349 1.595929,0.942111 1.792077,1.756428 0.145575,0.6152 0.121851,1.38493 -0.282328,1.613778 l -0.0921,0.0267"
       id="path5629" />
    <path
       style="fill:#fac78c;fill-opacity:1;fill-rule:nonzero;stroke:none;stroke-width:0.760821"
       d="m 55.098741,26.189623 c -0.06233,-1.037214 0.784593,-1.667272 1.037224,-1.037214 0.25261,0.627087 0.315024,1.601891 -0.28235,1.601891 -0.597351,0 -0.754874,-0.564677 -0.754874,-0.564677"
       id="path5631" />
    <path
       style="fill:#fac78c;fill-opacity:1;fill-rule:nonzero;stroke:none;stroke-width:0.760821"
       d="m 56.828426,26.62947 c 0,0 0.09511,0.7846 0.754875,0.974804 0.659788,0.187242 0.75192,-0.439847 0.75192,-0.439847 0,0 0.06233,1.72671 0.879702,1.477068 0.820243,-0.252623 0.442805,-2.074435 -0.344764,-2.231948 0.124871,-0.407155 -0.472525,-1.257138 -1.352226,-0.659777 -0.06233,-0.410128 -0.689507,-1.102591 -1.257161,-0.219924 -0.597353,1.194726 0.12789,2.166563 0.567654,1.099624"
       id="path5633" />
    <path
       style="fill:#fac78c;fill-opacity:1;fill-rule:nonzero;stroke:none;stroke-width:0.760821"
       d="m 56.953254,30.935846 c 0.78757,-1.069907 1.007485,-2.202223 0.282329,-2.766898 -0.72218,-0.564674 -1.477055,-0.974804 -1.477055,-0.974804 0,0 1.477055,0.315028 1.604858,-0.627084 0.124871,-0.942111 -2.609387,-0.912393 -2.986824,-0.190195 -0.377438,0.722186 -0.912398,1.979331 1.916905,4.276656 0.252631,0.502256 0.659787,0.282334 0.659787,0.282334"
       id="path5635" />
    <path
       style="fill:#e84717;fill-opacity:1;fill-rule:nonzero;stroke:none;stroke-width:0.760821"
       d="m 84.375546,74.941674 c 7.025712,-0.445789 9.938239,-2.60046 9.938239,-7.156479 0,-4.556021 -2.24681,-6.508591 -2.24681,-6.508591 0,0 -1.242279,7.453674 -3.964611,5.679417 -2.719334,-1.774266 1.361177,-2.365681 1.007506,-6.508603 -0.356647,-4.139935 -4.142903,-2.957099 -4.556012,-4.969117 -0.416084,-2.012016 1.714826,-3.075982 1.714826,-3.075982 0,0 -3.37319,-0.472539 -3.845736,3.254302 -0.472525,3.726843 3.016543,7.691435 0.531983,7.631999 -2.48456,-0.05941 -1.242258,-6.389721 -5.798291,-4.556017 2.841186,1.123401 4.380674,4.318258 1.539468,4.969122 -2.838209,0.650857 -5.382207,2.484555 -3.607943,6.508589 1.774263,4.021067 5.560541,4.969119 9.287381,4.73136"
       id="path5637" />
    <path
       style="fill:#ffa800;fill-opacity:1;fill-rule:nonzero;stroke:none;stroke-width:0.760821"
       d="m 84.197211,74.174914 c 2.900645,-0.475519 2.012036,-1.123403 0.829193,-2.365681 -1.182842,-1.24525 0.769734,-1.7178 0.531963,-3.964597 -0.234775,-2.249777 -1.477055,-2.309216 -1.063946,-3.905159 -0.888631,0.948058 -1.598927,1.595943 -0.948069,2.89766 0.650859,1.301727 0.237772,1.952583 -1.952576,2.781757 -2.18735,0.829174 -2.127912,3.667398 2.603435,4.55602"
       id="path5639" />
    <path
       style="fill:#9c6145;fill-opacity:1;fill-rule:nonzero;stroke:none;stroke-width:0.760821"
       d="m 93.071484,79.173748 c 0.297209,0.591428 -1.536491,1.774269 -2.306225,1.063967 -0.769734,-0.710298 -3.016544,-4.377696 -3.016544,-4.377696 0,0 0.885633,-1.004533 2.306247,-0.650864 1.420593,0.353663 3.016522,3.964593 3.016522,3.964593"
       id="path5641" />
    <path
       style="fill:#9c6145;fill-opacity:1;fill-rule:nonzero;stroke:none;stroke-width:0.760821"
       d="m 85.915013,75.741141 c 0.502265,0.377436 0.591422,4.496574 0.294234,4.853208 -0.294234,0.353668 -2.127935,0.707327 -2.425123,0 -0.294233,-0.71327 -0.118832,-4.49955 0.237751,-4.793772 0.353671,-0.297195 1.655367,-0.237759 1.893138,-0.05941"
       id="path5643" />
    <path
       style="fill:#9c6145;fill-opacity:1;fill-rule:nonzero;stroke:none;stroke-width:0.760821"
       d="m 82.069298,75.919454 c 0.234774,0.413104 -2.130888,3.961625 -2.900644,4.258826 -0.766758,0.297187 -2.18735,-0.413104 -2.068475,-1.123407 0.115813,-0.710299 2.48456,-3.313732 2.897647,-3.492055 0.413107,-0.175337 1.833722,-0.05941 2.071472,0.356636"
       id="path5645" />
    <path
       style="fill:#5c4a57;fill-opacity:1;fill-rule:nonzero;stroke:none;stroke-width:0.760821"
       d="m 103.33366,33.396632 c -0.19323,-0.772712 -6.000376,-2.805531 -6.145994,-3.096788 -0.145574,-0.288276 0,-4.353919 -0.291257,-4.983979 -0.05651,-0.121851 -0.219915,-0.273415 -0.44878,-0.43688 0.344764,-0.222896 1.049108,-0.677603 1.872349,-1.212561 0.478477,0.08323 1.462215,0.246675 1.554327,0.246675 0.118831,0 0.386365,-0.145617 0.288305,-0.264499 -0.0714,-0.08915 -0.951047,-0.205077 -1.414664,-0.261534 0.561702,-0.362584 1.153124,-0.748937 1.708874,-1.11449 0.51116,0.08915 1.27199,0.213985 1.35224,0.213985 0.12185,0 0.38634,-0.145618 0.29123,-0.267476 -0.0623,-0.07727 -0.72813,-0.172382 -1.2066,-0.231815 1.08773,-0.716236 1.95257,-1.29577 2.0031,-1.36413 0.14557,-0.193172 -0.0951,-0.531983 -0.24073,-0.484431 -0.13069,0.04458 -5.726956,3.691182 -6.793899,4.386619 l -0.169298,-0.08915 0.139751,-6.764181 c 0,0 -0.291235,-0.193172 -0.386344,-0.05051 -0.02373,0.03568 -0.04745,0.454713 -0.07139,1.063963 -0.246679,-0.344751 -0.558726,-0.784597 -0.630069,-0.867816 -0.121851,-0.145618 -0.267469,0.07128 -0.243702,0.240733 0.01726,0.121851 0.561702,0.826205 0.855936,1.197701 -0.01084,0.419045 -0.02373,0.888618 -0.03559,1.367097 -0.246678,-0.347721 -0.68653,-0.959948 -0.77271,-1.063959 -0.118832,-0.145639 -0.264515,0.0713 -0.240726,0.240725 0.02157,0.15157 0.823241,1.159065 1.001531,1.378988 -0.02674,1.325497 -0.04745,2.615327 -0.05651,3.058147 -0.953978,-0.401212 -2.012015,-0.609249 -2.276507,-0.0832 -0.484429,0.96886 1.985272,1.839645 1.985272,1.839645 0,0 0.240726,4.451996 -0.05047,5.034497 -0.28828,0.579533 -3.967567,4.933459 -3.385073,5.756691 0.579538,0.823232 3.144347,-3.191884 3.144347,-3.191884 0,0 -0.725156,4.451997 -0.291258,4.547099 0.436876,0.09809 2.032827,-4.790798 2.276529,-4.499547 0.240726,0.291251 3.48314,0.870785 3.48314,0.870785 0,0 -2.127938,4.841322 -1.500845,5.082055 0.630068,0.240724 2.760945,-3.581214 2.760945,-3.581214 0,0 -0.29125,4.451995 0.33582,4.597618 0.63006,0.142663 1.79209,-6.437263 1.59892,-7.212942"
       id="path5647" />
    <path
       style="fill:#5c4a57;fill-opacity:1;fill-rule:nonzero;stroke:none;stroke-width:0.760821"
       d="m 81.593776,5.5136895 c 0,0 0.424992,-1.2809209 0.05349,-1.6524144 -0.374461,-0.3714935 -0.906445,0 -0.906445,0 0,0 0.05349,-1.0639564 -0.320976,-1.0639564 -0.371485,0 -1.702921,1.8099197 -1.702921,1.8099197 -0.106975,0.6389777 1.970412,2.9303526 2.291388,2.8233648 0.317975,-0.104016 1.649412,-0.8529486 1.438426,-1.4384325 C 82.232795,5.4066954 81.593776,5.5136895 81.593776,5.5136895"
       id="path5651" />
    <path
       style="fill:#5c4a57;fill-opacity:1;fill-rule:nonzero;stroke:none;stroke-width:0.760821"
       d="m 66.728041,7.6445851 c 0,0 -2.026895,-2.5053653 -2.505373,-2.558857 C 63.74417,5.0322421 63.6372,6.0456709 63.6372,6.0456709 c 0,0 -1.331437,0.4784812 -0.692483,1.2274206 -0.427946,0.1575226 -0.95993,1.2779447 -0.21394,1.595938 0.745967,0.3209758 2.130911,1.4414085 2.505371,1.0134452 0.371507,-0.424996 -0.05349,-1.2779447 -0.05349,-1.2779447 0,0 1.384943,-0.2139838 1.54542,-0.9599449"
       id="path5653" />
    <path
       style="fill:#5c4a57;fill-opacity:1;fill-rule:nonzero;stroke:none;stroke-width:0.760821"
       d="m 86.76202,16.86361 c 0,0 0.638976,-0.106987 0.799453,-0.641943 0.157437,-0.531982 -2.50535,-0.742995 -3.037334,-0.47849 -0.531983,0.267475 0.318001,1.066933 0.318001,1.066933 0,0 -0.692483,0.05349 -0.745968,0.317999 -0.07721,0.398246 -0.210922,1.277947 -0.210922,1.277947 0,0 3.141371,0.106998 3.515833,-0.371495 0.371485,-0.481456 -0.638977,-1.170951 -0.638977,-1.170951"
       id="path5655" />
    <path
       style="fill:#5c4a57;fill-opacity:1;fill-rule:nonzero;stroke:none;stroke-width:0.760821"
       d="m 71.842778,24.266768 c 0,0 0,-1.117459 -0.374482,-1.117459 -0.371485,0 -0.849963,0.745957 -0.849963,0.745957 0,0 -0.481474,-0.959937 -0.959951,-0.638969 -0.549819,0.365552 -0.69246,2.609385 -0.267469,2.823364 0.427968,0.213985 0.906445,-0.799454 0.906445,-0.799454 0,0 0.213941,1.013436 0.478477,0.799454 0.26749,-0.213983 0.481474,-0.959942 0.481474,-0.959942 0,0 0.05349,0.959942 0.478477,0.852949 0.424991,-0.106987 1.224444,-1.7059 1.170959,-1.970408 -0.05349,-0.267476 -1.063967,0.264508 -1.063967,0.264508"
       id="path5657" />
    <path
       style="fill:#5c4a57;fill-opacity:1;fill-rule:nonzero;stroke:none;stroke-width:0.760821"
       d="m 63.316224,16.489141 c 0,0 0.320976,-1.010469 -0.210922,-1.066931 -0.534959,-0.05349 -2.879832,1.334406 -2.665849,1.759402 0.213942,0.424988 1.173914,-0.05349 1.173914,-0.05349 0,0 -1.120428,1.22445 -0.799453,1.491925 0.318,0.267474 1.384944,-0.478489 1.384944,-0.478489 0,0 1.702921,0.69247 2.130889,0.371503 0.424992,-0.318001 -0.160456,-1.117457 -0.160456,-1.117457 0,0 1.013437,-0.267482 0.906445,-0.852958 -0.106975,-0.591419 -1.759404,-0.05349 -1.759404,-0.05349"
       id="path5659" />
    <path
       style="fill:#5c4a57;fill-opacity:1;fill-rule:nonzero;stroke:none;stroke-width:0.760821"
       d="m 85.760468,39.551562 c -0.196257,-0.03865 -0.392298,0.08025 -0.436876,0.276392 -0.04162,0.18722 -0.199059,0.273424 -0.326906,0.312058 -0.300186,0.09511 -0.692483,0.01186 -0.909421,-0.187241 -0.433921,-0.404187 -0.573607,-1.075849 -0.710296,-1.72671 l -0.03278,-0.139686 c -0.163476,-0.772715 -0.454732,-1.714826 -1.274976,-2.14873 -1.0402,-0.552784 -2.199255,0.04755 -3.090841,0.627084 -0.820264,0.537923 -1.673224,0.986688 -2.36866,0.677604 -0.766758,-0.341778 -0.948068,-1.429509 -1.111521,-2.404313 -0.26747,-1.584055 -1.043156,-2.555889 -2.077405,-2.5975 -1.028295,-0.03865 -1.69699,0.81729 -2.282459,1.551371 -0.466593,0.582501 -1.1561,1.117457 -1.699945,0.870783 -0.413109,-0.18724 -0.526053,-0.656802 -0.656811,-1.408709 -0.08023,-0.448771 -0.163475,-0.909424 -0.371506,-1.316579 -0.392298,-0.772714 -1.27793,-1.260112 -2.127914,-1.182843 -0.861866,0.07434 -1.643505,0.704356 -1.899091,1.530562 -0.05651,0.190196 0.05047,0.39527 0.243703,0.454706 0.190217,0.05941 0.395273,-0.04755 0.45471,-0.240725 0.166495,-0.540898 0.698413,-0.968861 1.263092,-1.019389 0.561702,-0.04162 1.159055,0.282341 1.417617,0.787575 0.157437,0.312058 0.228844,0.719211 0.300164,1.111514 0.130694,0.745963 0.282351,1.589996 1.07585,1.949607 0.781639,0.356636 1.744545,-0.05051 2.603457,-1.123399 0.472525,-0.591425 1.037203,-1.28092 1.649436,-1.236335 0.781617,0.02974 1.230375,1.049097 1.387898,2.006066 0.184179,1.081797 0.410132,2.431069 1.533536,2.933328 1.013438,0.454713 2.071452,-0.08321 3.061122,-0.731098 0.728132,-0.472546 1.649437,-0.965895 2.353781,-0.594392 0.552796,0.29125 0.772709,1.037214 0.90349,1.652408 l 0.02976,0.142662 c 0.154633,0.725163 0.326907,1.548395 0.930233,2.107119 0.294212,0.273424 0.713251,0.424995 1.129336,0.424995 0.166494,0 0.332859,-0.02375 0.493337,-0.07434 0.433919,-0.133734 0.734083,-0.44282 0.82324,-0.84998 0.04464,-0.196149 -0.08023,-0.389329 -0.276397,-0.433906"
       id="path5661" />
    <path
       style="fill:#5c4a57;fill-opacity:1;fill-rule:nonzero;stroke:none;stroke-width:0.760821"
       d="m 83.320486,43.19816 c -0.193237,-0.05051 -0.395252,0.06239 -0.448758,0.255592 -0.06837,0.24964 -0.273422,0.368518 -0.436876,0.424987 -0.374482,0.130759 -0.864842,0.05941 -1.185818,-0.175358 -0.487406,-0.35366 -0.784593,-0.921311 -1.096662,-1.521645 -0.08907,-0.169406 -0.181375,-0.341777 -0.273421,-0.508207 -0.362579,-0.641943 -1.141219,-1.685098 -2.324062,-1.685098 -0.742992,0.0179 -1.355224,0.481455 -1.899091,0.891585 -0.564679,0.427962 -1.052063,0.796489 -1.584047,0.686528 -0.659786,-0.139687 -1.001552,-0.968862 -1.269021,-1.738601 -0.460663,-1.325496 -1.129357,-2.023907 -1.982317,-2.071461 -0.627071,-0.04458 -1.150148,0.315035 -1.610789,0.624119 -0.413109,0.276391 -0.796498,0.537923 -1.188795,0.490373 -0.46957,-0.05349 -0.835124,-0.537925 -1.099616,-0.954004 l -0.05047,-0.0832 c -0.335835,-0.523066 -0.713272,-1.117457 -1.367107,-1.364132 -0.448759,-0.169405 -1.019389,-0.05349 -1.390874,0.279366 -0.297209,0.267475 -0.416085,0.624109 -0.326928,0.980745 0.05047,0.196148 0.249655,0.312053 0.442827,0.261532 0.196041,-0.04755 0.315023,-0.246672 0.264515,-0.44282 -0.02157,-0.08618 0.01083,-0.172383 0.103946,-0.255591 0.172317,-0.15157 0.454711,-0.213983 0.647883,-0.139686 0.427968,0.160477 0.7222,0.624112 1.007506,1.072873 l 0.05349,0.08025 c 0.350694,0.555757 0.855914,1.203643 1.631601,1.289829 0.65681,0.0713 1.197701,-0.288275 1.676199,-0.612218 0.40418,-0.267483 0.781618,-0.514157 1.167984,-0.499289 0.529007,0.02974 0.977765,0.561697 1.331436,1.584052 0.240726,0.689496 0.689484,1.979326 1.809913,2.211141 0.855936,0.178313 1.557303,-0.350692 2.175489,-0.81729 0.496312,-0.377445 0.965882,-0.734081 1.471101,-0.745963 0.817289,-0.02071 1.447357,0.912392 1.673224,1.313605 0.08906,0.160498 0.175337,0.326917 0.261539,0.490372 0.33879,0.647894 0.689484,1.316579 1.316577,1.774259 0.335835,0.246675 0.77864,0.377445 1.212561,0.377445 0.219914,0 0.439851,-0.03271 0.64193,-0.104013 0.463639,-0.163453 0.781639,-0.487407 0.900514,-0.921311 0.05349,-0.193172 -0.06232,-0.39527 -0.255585,-0.448764"
       id="path5663" />
    <path
       style="fill:#5c4a57;fill-opacity:1;fill-rule:nonzero;stroke:none;stroke-width:0.760821"
       d="m 81.33819,47.89683 c -0.199059,0.02375 -0.344742,0.202078 -0.320976,0.404186 0.01084,0.1159 -0.04162,0.2229 -0.163475,0.318002 -0.208117,0.163453 -0.529006,0.213984 -0.763781,0.127804 -0.45471,-0.16643 -0.775687,-0.600342 -1.117474,-1.060989 l -0.115812,-0.154547 c -0.386345,-0.511174 -0.998578,-1.194728 -1.851516,-1.215535 -0.546843,-0.0088 -1.007505,0.240733 -1.429521,0.466605 -0.448758,0.240724 -0.8381,0.445789 -1.185819,0.315025 -0.353671,-0.130759 -0.496312,-0.517121 -0.686529,-1.13529 -0.163475,-0.52604 -0.347719,-1.1234 -0.829172,-1.497868 -0.647883,-0.502265 -1.578116,-0.448765 -2.68664,0.160499 l -0.151613,0.08321 c -0.624116,0.344751 -1.269044,0.698411 -1.854512,0.54684 -0.540891,-0.139686 -0.921304,-0.683544 -1.248211,-1.248219 l -0.04464,-0.07434 c -0.353671,-0.60925 -0.754875,-1.298745 -1.465171,-1.63458 -0.46957,-0.222889 -1.09071,-0.18722 -1.545442,0.09511 -0.359601,0.219931 -0.573564,0.570617 -0.582492,0.956978 -0.0065,0.202079 0.154632,0.368519 0.353671,0.374462 0.199059,-0.02071 0.368508,-0.154547 0.374461,-0.356638 0.0065,-0.175335 0.130693,-0.29125 0.234774,-0.353659 0.246678,-0.151571 0.603325,-0.175336 0.852959,-0.05644 0.505241,0.237757 0.832147,0.799455 1.147172,1.340354 l 0.04464,0.07727 c 0.386366,0.66572 0.894561,1.376023 1.69106,1.587031 0.873749,0.228839 1.679155,-0.219923 2.395403,-0.615194 l 0.148594,-0.08323 c 0.475501,-0.261532 1.355203,-0.636002 1.887186,-0.222897 0.300165,0.231815 0.436876,0.674635 0.579517,1.138266 0.196256,0.627084 0.416085,1.33738 1.129358,1.604856 0.65681,0.24073 1.257139,-0.07727 1.786146,-0.356636 0.374462,-0.20208 0.740015,-0.383379 1.066943,-0.380412 0.410133,0.0088 0.817289,0.303143 1.286858,0.924285 l 0.11301,0.148594 c 0.371484,0.502258 0.7935,1.066932 1.450311,1.313605 0.157436,0.05646 0.326928,0.08618 0.499289,0.08618 0.344764,0 0.695437,-0.112945 0.965882,-0.323943 0.320998,-0.249641 0.478498,-0.606277 0.439873,-0.977779 -0.02373,-0.199125 -0.20208,-0.3388 -0.404202,-0.320967"
       id="path5665" />
    <path
       style="fill:none;stroke:#5c4a57;stroke-width:1.6531;stroke-linecap:butt;stroke-linejoin:miter;stroke-miterlimit:4;stroke-dasharray:none;stroke-opacity:1"
       d="m 70.888068,12.818714 c -0.654828,0.475417 -1.178832,1.176483 -1.762963,1.774536 -0.104378,0.106843 -1.711721,1.899749 -1.873405,1.899749 -0.03904,0 0.07806,0 0.117321,0 0.138674,0 0.277563,0 0.416301,0 0.387789,0 0.778382,-0.01488 1.165697,0 1.023422,0.03934 2.062156,0.240694 3.07294,0.427771 0.185257,0.03439 0.426588,0.158321 0.624461,0.158321"
       id="path6731" />
    <path
       style="fill:none;stroke:#5c4a57;stroke-width:1.6531;stroke-linecap:butt;stroke-linejoin:miter;stroke-miterlimit:4;stroke-dasharray:none;stroke-opacity:1"
       d="m 75.600437,7.3477272 c 0.26969,2.8346248 0.478627,7.4562548 0.265204,9.7460158"
       id="path6779" />
    <path
       style="fill:none;stroke:#5c4a57;stroke-width:1.6531;stroke-linecap:round;stroke-linejoin:miter;stroke-miterlimit:4;stroke-dasharray:none;stroke-opacity:1;paint-order:markers fill stroke"
       d="m 77.75272,9.9864107 c 0.718772,0.5987903 1.54432,0.9371663 2.336807,1.3343003 0.170807,0.08557 2.673656,1.249763 2.484171,1.587127 -0.424862,0.756432 -2.206955,2.703535 -2.963705,3.066037"
       id="path6795"
       sodipodi:nodetypes="cssc" />
  </g>
</svg>
