<?xml version="1.0" encoding="UTF-8" standalone="no"?>
<svg
   xmlns:dc="http://purl.org/dc/elements/1.1/"
   xmlns:cc="http://creativecommons.org/ns#"
   xmlns:rdf="http://www.w3.org/1999/02/22-rdf-syntax-ns#"
   xmlns:svg="http://www.w3.org/2000/svg"
   xmlns="http://www.w3.org/2000/svg"
   xmlns:sodipodi="http://sodipodi.sourceforge.net/DTD/sodipodi-0.dtd"
   xmlns:inkscape="http://www.inkscape.org/namespaces/inkscape"
   width="359.80362"
   height="223.55981"
   viewBox="0 0 95.198042 59.150203"
   version="1.1"
   id="svg8"
   inkscape:version="1.0.1 (3bc2e813f5, 2020-09-07)"
   sodipodi:docname="cavepaintlogo-source.svg">
  <defs
     id="defs2">
    <rect
       x="32.008492"
       y="64.659851"
       width="146.59482"
       height="159.26288"
       id="rect835" />
    <rect
       x="32.008492"
       y="64.659851"
       width="146.59482"
       height="159.26288"
       id="rect835-6" />
    <rect
       x="32.008492"
       y="64.659851"
       width="146.59482"
       height="159.26288"
       id="rect848" />
    <rect
       x="32.008492"
       y="64.659851"
       width="146.59482"
       height="159.26288"
       id="rect835-6-5" />
    <rect
       x="32.008492"
       y="64.659851"
       width="146.59482"
       height="159.26288"
       id="rect877" />
    <rect
       x="32.008492"
       y="64.659851"
       width="146.59482"
       height="159.26288"
       id="rect835-6-5-4" />
    <rect
       x="32.008492"
       y="64.659851"
       width="146.59482"
       height="159.26288"
       id="rect907" />
    <rect
       x="32.008492"
       y="64.659851"
       width="146.59482"
       height="159.26288"
       id="rect835-65" />
    <rect
       x="32.008492"
       y="64.659851"
       width="146.59482"
       height="159.26288"
       id="rect937" />
    <rect
       x="32.008492"
       y="64.659851"
       width="146.59482"
       height="159.26288"
       id="rect835-6-9" />
    <rect
       x="32.008492"
       y="64.659851"
       width="146.59482"
       height="159.26288"
       id="rect966" />
    <rect
       x="32.008492"
       y="64.659851"
       width="146.59482"
       height="159.26288"
       id="rect835-6-5-4-7" />
    <rect
       x="32.008492"
       y="64.659851"
       width="146.59482"
       height="159.26288"
       id="rect995" />
    <rect
       x="32.008492"
       y="64.659851"
       width="146.59482"
       height="159.26288"
       id="rect835-6-5-4-5" />
    <rect
       x="32.008492"
       y="64.659851"
       width="146.59482"
       height="159.26288"
       id="rect1024" />
    <rect
       x="32.008492"
       y="64.659851"
       width="146.59482"
       height="159.26288"
       id="rect835-6-5-5" />
    <rect
       x="32.008492"
       y="64.659851"
       width="146.59482"
       height="159.26288"
       id="rect1053" />
    <rect
       x="32.008492"
       y="64.659851"
       width="146.59482"
       height="159.26288"
       id="rect835-7" />
    <rect
       x="32.008492"
       y="64.659851"
       width="146.59482"
       height="159.26288"
       id="rect1167" />
    <rect
       x="32.008492"
       y="64.659851"
       width="146.59482"
       height="159.26288"
       id="rect835-6-4" />
    <rect
       x="32.008492"
       y="64.659851"
       width="146.59482"
       height="159.26288"
       id="rect1170" />
    <rect
       x="32.008492"
       y="64.659851"
       width="146.59482"
       height="159.26288"
       id="rect835-6-5-43" />
    <rect
       x="32.008492"
       y="64.659851"
       width="146.59482"
       height="159.26288"
       id="rect1173" />
    <rect
       x="32.008492"
       y="64.659851"
       width="146.59482"
       height="159.26288"
       id="rect835-6-5-4-0" />
    <rect
       x="32.008492"
       y="64.659851"
       width="146.59482"
       height="159.26288"
       id="rect1176" />
    <rect
       x="32.008492"
       y="64.659851"
       width="146.59482"
       height="159.26288"
       id="rect835-65-7" />
    <rect
       x="32.008492"
       y="64.659851"
       width="146.59482"
       height="159.26288"
       id="rect1179" />
    <rect
       x="32.008492"
       y="64.659851"
       width="146.59482"
       height="159.26288"
       id="rect835-6-9-8" />
    <rect
       x="32.008492"
       y="64.659851"
       width="146.59482"
       height="159.26288"
       id="rect1182" />
    <rect
       x="32.008492"
       y="64.659851"
       width="146.59482"
       height="159.26288"
       id="rect835-6-5-4-7-6" />
    <rect
       x="32.008492"
       y="64.659851"
       width="146.59482"
       height="159.26288"
       id="rect1185" />
    <rect
       x="32.008492"
       y="64.659851"
       width="146.59482"
       height="159.26288"
       id="rect835-6-5-4-5-8" />
    <rect
       x="32.008492"
       y="64.659851"
       width="146.59482"
       height="159.26288"
       id="rect1188" />
    <rect
       x="32.008492"
       y="64.659851"
       width="146.59482"
       height="159.26288"
       id="rect835-6-5-5-8" />
    <rect
       x="32.008492"
       y="64.659851"
       width="146.59482"
       height="159.26288"
       id="rect1191" />
  </defs>
  <sodipodi:namedview
     id="base"
     pagecolor="#ffffff"
     bordercolor="#666666"
     borderopacity="1.0"
     inkscape:pageopacity="0.0"
     inkscape:pageshadow="2"
     inkscape:zoom="1.1590287"
     inkscape:cx="64.268227"
     inkscape:cy="47.446184"
     inkscape:document-units="mm"
     inkscape:current-layer="layer2"
     inkscape:document-rotation="0"
     showgrid="false"
     inkscape:window-width="1920"
     inkscape:window-height="1014"
     inkscape:window-x="0"
     inkscape:window-y="1107"
     inkscape:window-maximized="1"
     units="px"
     fit-margin-top="0"
     fit-margin-left="0"
     fit-margin-right="0"
     fit-margin-bottom="0" />
  <metadata
     id="metadata5">
    <rdf:RDF>
      <cc:Work
         rdf:about="">
        <dc:format>image/svg+xml</dc:format>
        <dc:type
           rdf:resource="http://purl.org/dc/dcmitype/StillImage" />
        <dc:title></dc:title>
      </cc:Work>
    </rdf:RDF>
  </metadata>
  <g
     inkscape:label="Layer 1"
     inkscape:groupmode="layer"
     id="layer1"
     transform="translate(-0.39576212,-0.62949892)" />
  <g
     inkscape:groupmode="layer"
     id="layer2"
     inkscape:label="Layer 2"
     transform="translate(-0.39576212,-0.62949892)">
    <g
       aria-label="C"
       transform="matrix(2.5926808,0.48936639,-0.48936639,2.5926808,-41.224205,-189.29108)"
       id="text833-4"
       style="font-style:normal;font-variant:normal;font-weight:normal;font-stretch:normal;font-size:12.7px;line-height:1.25;font-family:Purisa;-inkscape-font-specification:Purisa;white-space:pre;shape-inside:url(#rect835-7);fill:#283f2f;fill-opacity:1;stroke:none">
      <path
         d="m 39.945312,67.492256 q 0,0.3302 -0.3556,0.3302 -0.2286,0 -0.4318,-0.127 -0.1905,-0.1397 -0.2667,-0.2794 l -0.0762,-0.127 q -0.0508,-0.0635 -0.1905,-0.0635 -0.6477,0 -1.6129,0.4064 -0.9652,0.4064 -1.4859,0.9144 -0.4318,0.4191 -0.6477,1.3208 -0.2159,0.9017 -0.2159,2.6924 0,0.8509 0.2413,1.3716 0.2286,0.4953 0.6731,0.8128 0.4445,0.3175 0.9144,0.3175 0.2921,0 0.9017,-0.2667 0.6096,-0.2667 0.8636,-0.508 l 0.6985,-0.6477 q 0.3175,-0.2921 0.6604,-0.7747 0.3556,-0.4953 0.5842,-0.7747 0.2413,-0.2794 0.4318,-0.2794 0.0889,0.0254 0.127,0.0381 0.0508,0.0127 0.1143,0.1397 0.0635,0.127 0.0635,0.3429 0,0.2667 -0.3683,0.9017 -0.3683,0.6223 -0.9525,1.3208 -0.5842,0.6858 -1.4478,1.2065 -0.8636,0.5207 -1.7018,0.5207 -1.7653,0 -2.7813,-1.9812 -0.1397,-0.2794 -0.1397,-1.7399 0,-2.6162 0.254,-3.4798 0.3429,-1.1811 1.7018,-2.0701 1.3716,-0.889 2.6289,-0.889 0.7112,0 1.2573,0.4318 0.5588,0.4191 0.5588,0.9398 z"
         style="font-style:normal;font-variant:normal;font-weight:bold;font-stretch:normal;font-size:12.7px;font-family:Purisa;-inkscape-font-specification:'Purisa Bold';fill:#283f2f;fill-opacity:1"
         id="path1348" />
    </g>
    <g
       aria-label="A"
       transform="matrix(2.634809,-0.13876068,0.13876068,2.634809,-66.90996,-166.26418)"
       id="text833-1-31"
       style="font-style:normal;font-variant:normal;font-weight:normal;font-stretch:normal;font-size:10.5833px;line-height:1.25;font-family:Purisa;-inkscape-font-specification:Purisa;white-space:pre;shape-inside:url(#rect835-6-4);fill:#283f2f;fill-opacity:1;stroke:none">
      <path
         d="m 33.182559,74.777791 q -0.137583,0 -0.296333,-0.0635 -0.158749,-0.0635 -0.158749,-0.201083 0,-0.201082 0.222249,-0.518581 0.222249,-0.328083 0.222249,-0.433916 0,-0.380999 0.232833,-0.507998 0.04233,-0.02117 0.127,-0.243416 0.09525,-0.232833 0.222249,-0.529165 0.127,-0.296332 0.253999,-0.433915 0.285749,-0.296333 1.09008,-2.201327 0.349249,-0.814914 0.973664,-1.95791 0.624414,-1.142996 0.814914,-1.312329 0.253999,-0.08467 0.306915,-0.08467 0.169333,0 0.349249,0.105833 0.179916,0.211666 0.634998,1.269996 0.465665,1.047747 0.465665,1.344079 0.01058,0.211666 0.201083,0.952497 0.190499,0.730248 0.264583,1.164163 0.05292,0.402166 0.328082,1.354663 0.275166,0.952497 0.275166,1.195913 0,0.116416 -0.05292,0.169332 -0.05292,0.05292 -0.232832,0.05292 -0.137583,0 -0.391583,-0.116416 -0.169332,-0.08467 -0.264582,-0.22225 -0.08467,-0.137583 -0.127,-0.285749 -0.03175,-0.148166 -0.137583,-0.571498 -0.09525,-0.423332 -0.211666,-0.825497 l -0.201082,-0.687915 -0.455082,0.05292 q -0.666748,0.08467 -1.439329,0.137583 l -0.761997,0.05292 -0.306916,0.455082 q -0.825497,1.206496 -1.291163,2.317743 -0.243416,0.571498 -0.656164,0.571498 z m 4.423819,-4.624902 q 0,-0.201083 -0.190499,-1.015997 -0.179916,-0.825497 -0.317499,-1.15358 -0.285749,0.402166 -0.582082,1.02658 -0.296332,0.624415 -0.455082,1.047747 l -0.158749,0.423332 0.698498,-0.04233 q 0.656164,-0.04233 0.825497,-0.08467 0.179916,-0.04233 0.179916,-0.201082 z"
         style="font-style:normal;font-variant:normal;font-weight:bold;font-stretch:normal;font-family:Purisa;-inkscape-font-specification:'Purisa Bold';fill:#283f2f;fill-opacity:1"
         id="path1345" />
    </g>
    <g
       aria-label="V"
       transform="matrix(2.6271867,-0.24364577,0.24364577,2.6271867,-55.476232,-163.77683)"
       id="text833-1-5-49"
       style="font-style:normal;font-variant:normal;font-weight:normal;font-stretch:normal;font-size:10.5833px;line-height:1.25;font-family:Purisa;-inkscape-font-specification:Purisa;white-space:pre;shape-inside:url(#rect835-6-5-43);fill:#283f2f;fill-opacity:1;stroke:none">
      <path
         d="m 32.64281,66.829733 q 0.02117,-0.264583 0.211666,-0.391582 0.1905,-0.137583 0.359833,-0.137583 0.179916,0 0.296332,0.148166 0.127,0.148166 0.201083,0.328082 0.08467,0.179916 0.137583,0.211666 0.243416,0 0.243416,0.211666 0,0.105833 0.137582,0.433915 0.148167,0.328083 0.476249,1.100664 0.328082,0.761997 0.645581,1.629828 0.719665,1.92616 1.02658,2.423575 0.211666,-0.370415 0.634998,-1.354662 0.423332,-0.99483 0.603248,-1.576912 0.296333,-0.89958 0.783164,-2.05316 0.486832,-1.153579 0.804331,-1.344079 l 0.04233,-0.01058 q 0.04233,-0.01058 0.08467,-0.01058 0.169333,0 0.359832,0.09525 0.201083,0.08467 0.201083,0.296333 0,0.243416 -0.179916,0.761997 -0.169333,0.507999 -0.529165,1.428746 -0.349249,0.920747 -0.592665,1.640411 -0.264583,0.793748 -1.047747,2.328326 -0.412748,0.793748 -0.645581,1.100663 -0.232833,0.306916 -0.507998,0.306916 -0.444499,0 -0.698498,-0.328082 -0.243416,-0.338666 -0.730248,-1.555745 l -1.174746,-2.920991 q -0.571498,-1.428746 -0.571498,-1.629828 -0.01058,0.01058 -0.01058,0.02117 -0.01058,-0.02117 -0.285749,-0.444498 -0.275166,-0.423332 -0.275166,-0.709081 z"
         style="font-style:normal;font-variant:normal;font-weight:bold;font-stretch:normal;font-family:Purisa;-inkscape-font-specification:'Purisa Bold';fill:#283f2f;fill-opacity:1"
         id="path1342" />
    </g>
    <g
       aria-label="E"
       transform="matrix(2.5920761,0.49255933,-0.49255933,2.5920761,17.376931,-188.26104)"
       id="text833-1-5-7-20"
       style="font-style:normal;font-variant:normal;font-weight:normal;font-stretch:normal;font-size:10.5833px;line-height:1.25;font-family:Purisa;-inkscape-font-specification:Purisa;white-space:pre;shape-inside:url(#rect835-6-5-4-0);fill:#283f2f;fill-opacity:1;stroke:none">
      <path
         d="m 32.70631,68.120895 q 0,-0.624414 0.169333,-0.89958 0.169333,-0.285749 0.380999,-0.285749 0.08467,0 0.359832,-0.137583 0.285749,-0.137583 0.634998,-0.296333 0.359832,-0.169332 0.984247,-0.306915 0.634998,-0.137583 1.344079,-0.137583 1.111246,0 1.111246,0.423332 0,0.285749 -1.142996,0.455082 -0.920747,0.137583 -1.682745,0.380998 -0.761997,0.243416 -1.005413,0.455082 -0.137583,0.127 -0.137583,0.338666 0,0.02117 0.05292,0.539748 0.05292,0.518582 0.116416,1.079497 0.0635,0.560915 0.08467,0.634998 0.264583,-0.116417 1.322913,-0.338666 1.068913,-0.222249 1.471078,-0.222249 0.22225,0 0.328083,0.116416 0.105833,0.116416 0.105833,0.253999 0,0.169333 -0.127,0.275166 -0.243416,0.232833 -1.555745,0.529165 -1.312329,0.285749 -1.439329,0.359832 -0.0635,0.04233 -0.0635,0.137583 0,0.772581 0.02117,1.269996 l 0.03175,0.751414 h 0.444499 q 0.497415,0 1.269995,-0.190499 0.772581,-0.190499 1.28058,-0.444499 0.359832,-0.201082 0.497415,-0.201082 0.179916,0 0.317499,0.169333 0.148166,0.169332 0.148166,0.328082 0,0.328082 -0.645581,0.666748 -0.634998,0.338665 -1.513412,0.539748 -0.867831,0.201083 -1.576912,0.201083 -0.83608,0 -1.015997,-0.306916 -0.116416,-0.201083 -0.179916,-0.89958 -0.0635,-0.698498 -0.148166,-2.010827 -0.07408,-1.322913 -0.169333,-2.27541 -0.07408,-0.888997 -0.07408,-0.952497 z"
         style="font-style:normal;font-variant:normal;font-weight:bold;font-stretch:normal;font-family:Purisa;-inkscape-font-specification:'Purisa Bold';fill:#283f2f;fill-opacity:1"
         id="path1339" />
    </g>
    <g
       aria-label="P"
       transform="matrix(2.6335797,0.16040951,-0.16040951,2.6335797,-74.527798,-149.28915)"
       id="text833-6-6"
       style="font-style:normal;font-variant:normal;font-weight:normal;font-stretch:normal;font-size:12.7px;line-height:1.25;font-family:Purisa;-inkscape-font-specification:Purisa;white-space:pre;shape-inside:url(#rect835-65-7);fill:#283f2f;fill-opacity:1;stroke:none">
      <path
         d="m 39.170612,68.393956 q 0,-0.5715 -1.1049,-0.8001 -0.7239,-0.1524 -0.9652,-0.1524 -0.2286,0 -1.2192,0.1905 -0.6604,0.127 -0.8001,0.2794 -0.1397,0.1524 -0.1397,0.8255 0,0.6858 0.0762,1.4986 0.0889,0.8001 0.1778,0.9652 0.0381,0.0127 0.1524,0.0127 0.3937,0 1.1176,-0.1651 0.7239,-0.1651 1.1938,-0.4064 0.2413,-0.127 0.4064,-0.2921 0.1651,-0.1778 0.1778,-0.2794 0.0381,-0.3175 0.4826,-0.8509 0.4445,-0.5461 0.4445,-0.8255 z m -4.0513,-2.0828 q 0.4191,0 1.0541,-0.1016 0.635,-0.1143 1.0668,-0.1143 0.1778,0 0.2794,0.0127 0.4826,0.0635 0.6858,0.0889 0.2032,0.0254 0.5715,0.1016 0.381,0.0762 0.5334,0.1524 0.1651,0.0762 0.3937,0.2159 0.2286,0.1397 0.3175,0.3302 0.1016,0.1778 0.1778,0.4445 0.0762,0.2667 0.0762,0.6096 0,0.5461 -0.1651,1.2192 -0.1524,0.6604 -0.4445,0.6731 -0.0127,0.0254 -0.0254,0.1016 0,0.0762 0,0.0889 -0.1397,0.3937 -0.9271,1.0414 -0.7874,0.6477 -1.27,0.7366 -0.2794,0.0762 -0.3937,0.1143 -0.1016,0.0381 -0.1524,0.1016 -0.0508,0.0508 -0.0635,0.0508 -0.254,0.1651 -0.9652,0.1651 h -0.6096 l 0.1143,2.0447 q 0.0635,1.0795 0.0635,1.524 0,0.6223 -0.1143,0.9017 -0.1143,0.2794 -0.4318,0.4191 -0.0889,0.0381 -0.1905,0.0381 -0.4318,0 -0.5207,-0.7112 -0.1397,-0.9652 -0.3302,-3.6068 -0.1778,-2.6416 -0.1778,-3.5687 v -1.0033 l -0.127,0.0762 q -0.2794,0.2032 -0.5334,0.2032 -0.1397,0 -0.2794,-0.127 -0.127,-0.127 -0.127,-0.3302 0,-0.3937 0.7747,-1.1938 0.4064,-0.4191 0.635,-0.5715 0.2413,-0.1651 0.508,-0.1651 0.1016,0 0.254,0.0254 0.1524,0.0127 0.3429,0.0127 z"
         style="font-style:normal;font-variant:normal;font-weight:bold;font-stretch:normal;font-size:12.7px;font-family:Purisa;-inkscape-font-specification:'Purisa Bold';fill:#283f2f;fill-opacity:1"
         id="path1336" />
    </g>
    <g
       aria-label="A"
       transform="matrix(-2.5772856,-0.56486489,-0.56486489,2.5772856,163.63066,-116.01349)"
       id="text833-1-3-8"
       style="font-style:normal;font-variant:normal;font-weight:normal;font-stretch:normal;font-size:10.5833px;line-height:1.25;font-family:Purisa;-inkscape-font-specification:Purisa;white-space:pre;shape-inside:url(#rect835-6-9-8);fill:#283f2f;fill-opacity:1;stroke:none">
      <path
         d="m 33.160253,73.748192 c 0,-0.253999 0.08933,-0.610813 0.244555,-0.695479 0.02822,-0.01411 0.07055,-0.09525 0.127,-0.243416 0.0635,-0.155222 0.137583,-0.33161 0.222249,-0.529165 0.08467,-0.197555 0.169333,-0.342193 0.253999,-0.433915 0.190499,-0.197555 0.553859,-0.931331 1.09008,-2.201327 0.232833,-0.543276 0.557387,-1.195913 0.973664,-1.95791 0.416276,-0.761997 0.687914,-1.19944 0.814914,-1.312329 0.169333,-0.05645 0.271638,-0.08467 0.306915,-0.08467 0.112889,0 0.229305,0.03528 0.349249,0.105833 0.119944,0.141111 0.33161,0.564443 0.634998,1.269996 0.310443,0.698498 0.465665,1.146524 0.465665,1.344079 0.0071,0.141111 0.07408,0.45861 0.201083,0.952497 0.126999,0.486832 0.215194,0.874886 0.264583,1.164163 0.03528,0.268111 0.144641,0.719665 0.328082,1.354663 0.183444,0.634998 0.275166,1.033636 0.275166,1.195913 0,0.07761 -0.01764,0.134055 -0.05292,0.169332 -0.03528,0.03528 -0.112891,0.05292 -0.232832,0.05292 -0.09172,0 -0.22225,-0.0388 -0.391583,-0.116416 -0.112888,-0.05645 -0.201082,-0.13053 -0.264582,-0.22225 -0.05645,-0.09172 -0.09878,-0.186972 -0.127,-0.285749 -0.02117,-0.09878 -0.06703,-0.289277 -0.137583,-0.571498 -0.0635,-0.282221 -0.134055,-0.557387 -0.211666,-0.825497 l -0.201082,-0.687915 -0.455082,0.05292 c -0.444499,0.05645 -0.924275,0.102308 -1.439329,0.137583 l -0.761997,0.05292 -0.306916,0.455082 c -0.550331,0.804331 -0.980719,1.576912 -1.291163,2.317743 -0.139724,0.387101 -0.675348,-0.0609 -0.678467,-0.458108 z m 4.446125,-3.595303 c 0,-0.134055 -0.0635,-0.472721 -0.190499,-1.015997 -0.119944,-0.550331 -0.225777,-0.934858 -0.317499,-1.15358 -0.190499,0.268111 -0.384527,0.610304 -0.582082,1.02658 -0.197555,0.416277 -0.349249,0.765526 -0.455082,1.047747 l -0.158749,0.423332 0.698498,-0.04233 c 0.437443,-0.02822 0.712608,-0.05644 0.825497,-0.08467 0.119944,-0.02822 0.179916,-0.09525 0.179916,-0.201082 z"
         style="font-style:normal;font-variant:normal;font-weight:bold;font-stretch:normal;font-family:Purisa;-inkscape-font-specification:'Purisa Bold';fill:#283f2f;fill-opacity:1"
         id="path1333"
         sodipodi:nodetypes="cccsccscscccccssssccccccccccccsccsscccs" />
    </g>
    <g
       aria-label="I"
       transform="matrix(2.6223624,0.2910133,-0.2910133,2.6223624,-28.021361,-151.8834)"
       id="text833-1-5-7-4-9"
       style="font-style:normal;font-variant:normal;font-weight:normal;font-stretch:normal;font-size:10.5833px;line-height:1.25;font-family:Purisa;-inkscape-font-specification:Purisa;white-space:pre;shape-inside:url(#rect835-6-5-4-7-6);fill:#283f2f;fill-opacity:1;stroke:none">
      <path
         d="m 36.87613,72.925713 q 0.169333,-0.09525 0.349249,-0.09525 0.22225,0 0.380999,0.126999 0.169333,0.127 0.169333,0.328082 0,0.306916 -0.455082,0.539749 -0.444499,0.232832 -1.576912,0.560915 -0.698498,0.253999 -1.195913,0.253999 -0.0635,0 -0.222249,-0.03175 -0.158749,-0.02117 -0.391582,-0.08467 -0.232833,-0.05292 -0.402165,-0.1905 -0.15875,-0.137583 -0.15875,-0.328082 0,-0.243416 0.127,-0.328082 0.126999,-0.08467 0.423332,-0.08467 0.444498,0 1.05833,-0.222249 l 0.550331,-0.201083 -0.09525,-1.809744 q -0.09525,-1.904994 -0.09525,-3.026824 v -0.920747 l -0.1905,0.03175 q -0.857247,0.148166 -1.248829,0.148166 -0.761997,0 -0.761997,-0.338665 0,-0.137583 0.126999,-0.243416 0.137583,-0.116417 0.402166,-0.211666 0.275165,-0.09525 0.539748,-0.169333 0.264582,-0.07408 0.666748,-0.179916 0.402165,-0.105833 0.677331,-0.1905 0.148166,-0.0635 1.015997,-0.0635 0.888997,0 1.068913,0.137583 0.201083,0.169332 0.201083,0.412748 0,0.253999 -0.232833,0.370416 -0.222249,0.116416 -0.761998,0.169333 l -0.201082,0.02117 0.02117,1.661578 q 0.05292,3.344323 0.211666,3.958154 z"
         style="font-style:normal;font-variant:normal;font-weight:bold;font-stretch:normal;font-family:Purisa;-inkscape-font-specification:'Purisa Bold';fill:#283f2f;fill-opacity:1"
         id="path1330" />
    </g>
    <g
       aria-label="N"
       transform="matrix(2.3822319,0.02774238,-0.02504962,2.6383145,-22.047867,-144.17434)"
       id="text833-1-5-7-2-2"
       style="font-style:normal;font-variant:normal;font-weight:normal;font-stretch:normal;font-size:10.5833px;line-height:1.25;font-family:Purisa;-inkscape-font-specification:Purisa;white-space:pre;shape-inside:url(#rect835-6-5-4-5-8);fill:#283f2f;fill-opacity:1;stroke:none">
      <path
         d="m 34.082139,71.105386 q 0,0.507998 0.04233,0.888997 0.04233,0.380999 0.04233,0.497415 0,0.634998 -0.169333,1.132413 -0.169333,0.497415 -0.423332,0.497415 -0.444499,0 -0.571498,-0.317499 -0.127,-0.317499 -0.127,-1.407579 0,-1.227662 0.0635,-3.439572 0.07408,-2.222493 0.148166,-2.465909 0.01058,-0.04233 0.04233,-0.09525 0.03175,-0.0635 0.179916,-0.158749 0.148167,-0.105833 0.349249,-0.105833 0.211666,0 0.433916,0.137583 0.190499,0.137583 0.878413,1.047746 0.698498,0.899581 0.698498,1.047747 0.02117,0.05292 0.243416,0.370416 0.222249,0.317499 0.687915,1.05833 0.476248,0.730247 0.984246,1.650994 1.037164,1.883828 1.386413,2.021411 0.158749,-0.254 0.317499,-2.518826 0.190499,-2.804574 0.306915,-3.333739 0.127,-0.613832 0.455082,-0.709081 0.09525,-0.03175 0.22225,-0.03175 0.476248,0 0.476248,0.730248 0,0.243415 -0.05292,0.740831 -0.05292,0.486831 -0.169333,1.523995 -0.105833,1.02658 -0.201083,2.190743 -0.04233,0.582081 -0.07408,0.888997 -0.03175,0.296332 -0.08467,0.656164 -0.05292,0.349249 -0.105833,0.507999 -0.05292,0.158749 -0.148167,0.317499 -0.09525,0.148166 -0.222249,0.190499 -0.116416,0.05292 -0.296332,0.05292 -0.793748,0 -1.407579,-0.550332 -0.603248,-0.560915 -1.227663,-1.735661 -0.296332,-0.550332 -0.529165,-0.941914 -0.232833,-0.402165 -0.317499,-0.518581 -0.08467,-0.116417 -0.148166,-0.243416 -0.05292,-0.137583 -0.105833,-0.338666 -0.05292,-0.190499 -0.285749,-0.560915 -0.232833,-0.370415 -0.634998,-0.920747 -0.391582,-0.550331 -0.455082,-0.645581 -0.201083,0.984247 -0.201083,2.889241 z"
         style="font-style:normal;font-variant:normal;font-weight:bold;font-stretch:normal;font-family:Purisa;-inkscape-font-specification:'Purisa Bold';fill:#283f2f;fill-opacity:1"
         id="path1327" />
    </g>
    <g
       aria-label="T"
       transform="matrix(2.6338836,0.1553389,-0.1553389,2.6338836,-5.284398,-153.4555)"
       id="text833-1-5-4-6"
       style="font-style:normal;font-variant:normal;font-weight:normal;font-stretch:normal;font-size:11.9944px;line-height:1.25;font-family:Purisa;-inkscape-font-specification:Purisa;white-space:pre;shape-inside:url(#rect835-6-5-5-8);fill:#283f2f;fill-opacity:1;stroke:none">
      <path
         d="m 40.931646,66.555271 q 0.515759,0 0.923569,0.191911 0.40781,0.19191 0.40781,0.455787 0,0.203905 -0.167922,0.347838 -0.167922,0.131938 -0.431798,0.179916 -0.263877,0.04798 -0.419804,0.05997 -0.143933,0.01199 -0.275872,0.01199 -0.779636,0 -1.751182,0.203905 l -0.815619,0.179916 0.155927,0.827613 q 0.143933,0.89958 0.335843,3.466382 0.191911,2.566802 0.227894,2.830678 0.03598,0.2159 0.03598,0.419804 0,0.575732 -0.49177,0.575732 -0.227894,0 -0.371827,-0.155928 -0.131938,-0.155927 -0.251882,-0.623708 -0.10795,-0.467782 -0.179916,-1.151463 -0.05997,-0.695675 -0.143933,-1.931098 -0.08396,-1.223429 -0.203905,-2.170987 -0.107949,-0.947557 -0.215899,-1.39135 -0.09595,-0.443793 -0.179916,-0.503765 -0.07197,-0.04798 -0.215899,-0.04798 -0.09595,0 -0.851603,0.119944 -0.755647,0.119944 -1.19944,0.119944 -0.275871,0 -0.79163,0.09596 -0.515759,0.08396 -0.719664,0.08396 -0.335843,0 -0.563737,-0.143933 -0.227893,-0.155927 -0.227893,-0.383821 0,-0.275871 0.347837,-0.395815 0.287866,-0.09596 2.434863,-0.40781 1.919104,-0.275871 3.802225,-0.611714 1.475311,-0.251883 1.79916,-0.251883 z"
         style="font-style:normal;font-variant:normal;font-weight:bold;font-stretch:normal;font-size:11.9944px;font-family:Purisa;-inkscape-font-specification:'Purisa Bold';fill:#283f2f;fill-opacity:1"
         id="path1324" />
    </g>
  </g>
</svg>
