<?xml version="1.0" encoding="UTF-8" standalone="no"?>
<svg
   xmlns:dc="http://purl.org/dc/elements/1.1/"
   xmlns:cc="http://creativecommons.org/ns#"
   xmlns:rdf="http://www.w3.org/1999/02/22-rdf-syntax-ns#"
   xmlns:svg="http://www.w3.org/2000/svg"
   xmlns="http://www.w3.org/2000/svg"
   xmlns:sodipodi="http://sodipodi.sourceforge.net/DTD/sodipodi-0.dtd"
   xmlns:inkscape="http://www.inkscape.org/namespaces/inkscape"
   sodipodi:docname="caveman_bow.svg"
   inkscape:version="1.0 (4035a4fb49, 2020-05-01)"
   id="svg6894"
   version="1.1"
   viewBox="0 0 132.29166 105.83334"
   height="400"
   width="500">
  <defs
     id="defs6888">
    <clipPath
       id="clip34">
      <path
         d="m 349,223 h 6 v 9 h -6 z m 0,0"
         id="path2282" />
    </clipPath>
    <clipPath
       id="clip35">
      <path
         d="m 353.64453,223.02344 c -0.88281,1.99218 -3.95312,5.32422 -4.44141,6.30078 -0.49218,0.98047 2.82422,3.28515 4.44141,1.86328 1.61719,-1.41797 0,-8.16406 0,-8.16406 z m 0,0"
         id="path2285" />
    </clipPath>
    <clipPath
       id="clip36">
      <path
         d="m 353.64453,223.02344 c -0.88281,1.99218 -3.95312,5.32422 -4.44141,6.30078 -0.49218,0.98047 2.82422,3.28515 4.44141,1.86328 1.61719,-1.41797 0,-8.16406 0,-8.16406"
         id="path2288" />
    </clipPath>
    <linearGradient
       id="linear2"
       gradientUnits="userSpaceOnUse"
       x1="-0.58135098"
       y1="0"
       x2="1.632663"
       y2="0"
       gradientTransform="matrix(-2.00745,4.73185,4.73185,2.00745,353.504,225.526)">
      <stop
         offset="0"
         style="stop-color:rgb(98.822021%,78.038025%,55.293274%);stop-opacity:1;"
         id="stop2291" />
      <stop
         offset="0.25"
         style="stop-color:rgb(98.822021%,78.038025%,55.293274%);stop-opacity:1;"
         id="stop2293" />
      <stop
         offset="0.3125"
         style="stop-color:rgb(98.771667%,77.92511%,55.224609%);stop-opacity:1;"
         id="stop2295" />
      <stop
         offset="0.328125"
         style="stop-color:rgb(98.681641%,77.720642%,55.101013%);stop-opacity:1;"
         id="stop2297" />
      <stop
         offset="0.34375"
         style="stop-color:rgb(98.58551%,77.505493%,54.969788%);stop-opacity:1;"
         id="stop2299" />
      <stop
         offset="0.359375"
         style="stop-color:rgb(98.460388%,77.227783%,54.800415%);stop-opacity:1;"
         id="stop2301" />
      <stop
         offset="0.375"
         style="stop-color:rgb(98.306274%,76.882935%,54.589844%);stop-opacity:1;"
         id="stop2303" />
      <stop
         offset="0.382812"
         style="stop-color:rgb(98.173523%,76.585388%,54.40979%);stop-opacity:1;"
         id="stop2305" />
      <stop
         offset="0.390625"
         style="stop-color:rgb(98.074341%,76.361084%,54.272461%);stop-opacity:1;"
         id="stop2307" />
      <stop
         offset="0.398438"
         style="stop-color:rgb(97.966003%,76.119995%,54.125977%);stop-opacity:1;"
         id="stop2309" />
      <stop
         offset="0.40625"
         style="stop-color:rgb(97.851562%,75.860596%,53.967285%);stop-opacity:1;"
         id="stop2311" />
      <stop
         offset="0.414062"
         style="stop-color:rgb(97.727966%,75.582886%,53.799438%);stop-opacity:1;"
         id="stop2313" />
      <stop
         offset="0.421875"
         style="stop-color:rgb(97.595215%,75.286865%,53.619385%);stop-opacity:1;"
         id="stop2315" />
      <stop
         offset="0.429688"
         style="stop-color:rgb(97.454834%,74.971008%,53.427124%);stop-opacity:1;"
         id="stop2317" />
      <stop
         offset="0.4375"
         style="stop-color:rgb(97.306824%,74.638367%,53.225708%);stop-opacity:1;"
         id="stop2319" />
      <stop
         offset="0.445312"
         style="stop-color:rgb(97.149658%,74.285889%,53.010559%);stop-opacity:1;"
         id="stop2321" />
      <stop
         offset="0.453125"
         style="stop-color:rgb(96.983337%,73.913574%,52.784729%);stop-opacity:1;"
         id="stop2323" />
      <stop
         offset="0.457031"
         style="stop-color:rgb(96.809387%,73.522949%,52.548218%);stop-opacity:1;"
         id="stop2325" />
      <stop
         offset="0.460937"
         style="stop-color:rgb(96.720886%,73.323059%,52.426147%);stop-opacity:1;"
         id="stop2327" />
      <stop
         offset="0.464844"
         style="stop-color:rgb(96.626282%,73.112488%,52.297974%);stop-opacity:1;"
         id="stop2329" />
      <stop
         offset="0.46875"
         style="stop-color:rgb(96.533203%,72.903442%,52.171326%);stop-opacity:1;"
         id="stop2331" />
      <stop
         offset="0.472656"
         style="stop-color:rgb(96.434021%,72.683716%,52.037048%);stop-opacity:1;"
         id="stop2333" />
      <stop
         offset="0.476562"
         style="stop-color:rgb(96.336365%,72.463989%,51.904297%);stop-opacity:1;"
         id="stop2335" />
      <stop
         offset="0.480469"
         style="stop-color:rgb(96.234131%,72.233582%,51.763916%);stop-opacity:1;"
         id="stop2337" />
      <stop
         offset="0.484375"
         style="stop-color:rgb(96.131897%,72.0047%,51.623535%);stop-opacity:1;"
         id="stop2339" />
      <stop
         offset="0.488281"
         style="stop-color:rgb(96.025085%,71.765137%,51.477051%);stop-opacity:1;"
         id="stop2341" />
      <stop
         offset="0.492188"
         style="stop-color:rgb(95.918274%,71.525574%,51.332092%);stop-opacity:1;"
         id="stop2343" />
      <stop
         offset="0.496094"
         style="stop-color:rgb(95.806885%,71.27533%,51.179504%);stop-opacity:1;"
         id="stop2345" />
      <stop
         offset="0.5"
         style="stop-color:rgb(95.695496%,71.026611%,51.028442%);stop-opacity:1;"
         id="stop2347" />
      <stop
         offset="0.503906"
         style="stop-color:rgb(95.579529%,70.765686%,50.869751%);stop-opacity:1;"
         id="stop2349" />
      <stop
         offset="0.507812"
         style="stop-color:rgb(95.463562%,70.506287%,50.712585%);stop-opacity:1;"
         id="stop2351" />
      <stop
         offset="0.511719"
         style="stop-color:rgb(95.343018%,70.236206%,50.547791%);stop-opacity:1;"
         id="stop2353" />
      <stop
         offset="0.515625"
         style="stop-color:rgb(95.222473%,69.966125%,50.384521%);stop-opacity:1;"
         id="stop2355" />
      <stop
         offset="0.519531"
         style="stop-color:rgb(95.097351%,69.685364%,50.213623%);stop-opacity:1;"
         id="stop2357" />
      <stop
         offset="0.523438"
         style="stop-color:rgb(94.972229%,69.406128%,50.04425%);stop-opacity:1;"
         id="stop2359" />
      <stop
         offset="0.527344"
         style="stop-color:rgb(94.842529%,69.114685%,49.867249%);stop-opacity:1;"
         id="stop2361" />
      <stop
         offset="0.53125"
         style="stop-color:rgb(94.714355%,68.824768%,49.690247%);stop-opacity:1;"
         id="stop2363" />
      <stop
         offset="0.535156"
         style="stop-color:rgb(94.580078%,68.522644%,49.507141%);stop-opacity:1;"
         id="stop2365" />
      <stop
         offset="0.539062"
         style="stop-color:rgb(94.445801%,68.222046%,49.324036%);stop-opacity:1;"
         id="stop2367" />
      <stop
         offset="0.542969"
         style="stop-color:rgb(94.30542%,67.910767%,49.134827%);stop-opacity:1;"
         id="stop2369" />
      <stop
         offset="0.546875"
         style="stop-color:rgb(94.166565%,67.599487%,48.945618%);stop-opacity:1;"
         id="stop2371" />
      <stop
         offset="0.550781"
         style="stop-color:rgb(94.023132%,67.276001%,48.748779%);stop-opacity:1;"
         id="stop2373" />
      <stop
         offset="0.554688"
         style="stop-color:rgb(93.8797%,66.954041%,48.553467%);stop-opacity:1;"
         id="stop2375" />
      <stop
         offset="0.558594"
         style="stop-color:rgb(93.731689%,66.621399%,48.350525%);stop-opacity:1;"
         id="stop2377" />
      <stop
         offset="0.5625"
         style="stop-color:rgb(93.583679%,66.288757%,48.149109%);stop-opacity:1;"
         id="stop2379" />
      <stop
         offset="0.566406"
         style="stop-color:rgb(93.429565%,65.945435%,47.940063%);stop-opacity:1;"
         id="stop2381" />
      <stop
         offset="0.570312"
         style="stop-color:rgb(93.276978%,65.603638%,47.731018%);stop-opacity:1;"
         id="stop2383" />
      <stop
         offset="0.574219"
         style="stop-color:rgb(93.118286%,65.249634%,47.515869%);stop-opacity:1;"
         id="stop2385" />
      <stop
         offset="0.578125"
         style="stop-color:rgb(92.961121%,64.89563%,47.30072%);stop-opacity:1;"
         id="stop2387" />
      <stop
         offset="0.582031"
         style="stop-color:rgb(92.797852%,64.530945%,47.077942%);stop-opacity:1;"
         id="stop2389" />
      <stop
         offset="0.585938"
         style="stop-color:rgb(92.636108%,64.16626%,46.856689%);stop-opacity:1;"
         id="stop2391" />
      <stop
         offset="0.589844"
         style="stop-color:rgb(92.468262%,63.789368%,46.627808%);stop-opacity:1;"
         id="stop2393" />
      <stop
         offset="0.59375"
         style="stop-color:rgb(92.301941%,63.414001%,46.400452%);stop-opacity:1;"
         id="stop2395" />
      <stop
         offset="0.597656"
         style="stop-color:rgb(92.129517%,63.027954%,46.165466%);stop-opacity:1;"
         id="stop2397" />
      <stop
         offset="0.601562"
         style="stop-color:rgb(91.957092%,62.641907%,45.930481%);stop-opacity:1;"
         id="stop2399" />
      <stop
         offset="0.605469"
         style="stop-color:rgb(91.778564%,62.243652%,45.687866%);stop-opacity:1;"
         id="stop2401" />
      <stop
         offset="0.609375"
         style="stop-color:rgb(91.601562%,61.846924%,45.446777%);stop-opacity:1;"
         id="stop2403" />
      <stop
         offset="0.613281"
         style="stop-color:rgb(91.419983%,61.437988%,45.198059%);stop-opacity:1;"
         id="stop2405" />
      <stop
         offset="0.617188"
         style="stop-color:rgb(91.238403%,61.030579%,44.950867%);stop-opacity:1;"
         id="stop2407" />
      <stop
         offset="0.621094"
         style="stop-color:rgb(91.05072%,60.610962%,44.696045%);stop-opacity:1;"
         id="stop2409" />
      <stop
         offset="0.625"
         style="stop-color:rgb(90.864563%,60.191345%,44.441223%);stop-opacity:1;"
         id="stop2411" />
      <stop
         offset="0.628906"
         style="stop-color:rgb(90.672302%,59.761047%,44.178772%);stop-opacity:1;"
         id="stop2413" />
      <stop
         offset="0.632812"
         style="stop-color:rgb(90.480042%,59.33075%,43.917847%);stop-opacity:1;"
         id="stop2415" />
      <stop
         offset="0.636719"
         style="stop-color:rgb(90.283203%,58.889771%,43.649292%);stop-opacity:1;"
         id="stop2417" />
      <stop
         offset="0.640625"
         style="stop-color:rgb(90.086365%,58.448792%,43.380737%);stop-opacity:1;"
         id="stop2419" />
      <stop
         offset="0.644531"
         style="stop-color:rgb(89.884949%,57.995605%,43.104553%);stop-opacity:1;"
         id="stop2421" />
      <stop
         offset="0.648438"
         style="stop-color:rgb(89.683533%,57.542419%,42.829895%);stop-opacity:1;"
         id="stop2423" />
      <stop
         offset="0.652344"
         style="stop-color:rgb(89.476013%,57.078552%,42.547607%);stop-opacity:1;"
         id="stop2425" />
      <stop
         offset="0.65625"
         style="stop-color:rgb(89.27002%,56.616211%,42.26532%);stop-opacity:1;"
         id="stop2427" />
      <stop
         offset="0.660156"
         style="stop-color:rgb(89.057922%,56.140137%,41.976929%);stop-opacity:1;"
         id="stop2429" />
      <stop
         offset="0.664062"
         style="stop-color:rgb(88.845825%,55.665588%,41.688538%);stop-opacity:1;"
         id="stop2431" />
      <stop
         offset="0.667969"
         style="stop-color:rgb(88.62915%,55.178833%,41.392517%);stop-opacity:1;"
         id="stop2433" />
      <stop
         offset="0.671875"
         style="stop-color:rgb(88.412476%,54.692078%,41.096497%);stop-opacity:1;"
         id="stop2435" />
      <stop
         offset="0.675781"
         style="stop-color:rgb(88.189697%,54.194641%,40.792847%);stop-opacity:1;"
         id="stop2437" />
      <stop
         offset="0.679688"
         style="stop-color:rgb(87.968445%,53.697205%,40.490723%);stop-opacity:1;"
         id="stop2439" />
      <stop
         offset="0.683594"
         style="stop-color:rgb(87.741089%,53.187561%,40.180969%);stop-opacity:1;"
         id="stop2441" />
      <stop
         offset="0.6875"
         style="stop-color:rgb(87.513733%,52.679443%,39.871216%);stop-opacity:1;"
         id="stop2443" />
      <stop
         offset="0.691406"
         style="stop-color:rgb(87.281799%,52.157593%,39.555359%);stop-opacity:1;"
         id="stop2445" />
      <stop
         offset="0.695312"
         style="stop-color:rgb(87.049866%,51.637268%,39.239502%);stop-opacity:1;"
         id="stop2447" />
      <stop
         offset="0.699219"
         style="stop-color:rgb(86.811829%,51.104736%,38.91449%);stop-opacity:1;"
         id="stop2449" />
      <stop
         offset="0.703125"
         style="stop-color:rgb(86.575317%,50.57373%,38.591003%);stop-opacity:1;"
         id="stop2451" />
      <stop
         offset="0.707031"
         style="stop-color:rgb(86.332703%,50.028992%,38.259888%);stop-opacity:1;"
         id="stop2453" />
      <stop
         offset="0.710937"
         style="stop-color:rgb(86.090088%,49.485779%,37.930298%);stop-opacity:1;"
         id="stop2455" />
      <stop
         offset="0.714844"
         style="stop-color:rgb(85.984802%,49.252319%,37.788391%);stop-opacity:1;"
         id="stop2457" />
      <stop
         offset="0.71875"
         style="stop-color:rgb(85.881042%,49.01886%,37.646484%);stop-opacity:1;"
         id="stop2459" />
      <stop
         offset="0.75"
         style="stop-color:rgb(85.881042%,49.01886%,37.646484%);stop-opacity:1;"
         id="stop2461" />
      <stop
         offset="1"
         style="stop-color:rgb(85.881042%,49.01886%,37.646484%);stop-opacity:1;"
         id="stop2463" />
    </linearGradient>
  </defs>
  <sodipodi:namedview
     inkscape:window-maximized="1"
     inkscape:window-y="1110"
     inkscape:window-x="0"
     inkscape:window-height="1011"
     inkscape:window-width="1920"
     units="px"
     showgrid="false"
     inkscape:document-rotation="0"
     inkscape:current-layer="layer1"
     inkscape:document-units="mm"
     inkscape:cy="218.96011"
     inkscape:cx="364.44449"
     inkscape:zoom="1"
     inkscape:pageshadow="2"
     inkscape:pageopacity="0.0"
     borderopacity="1.0"
     bordercolor="#666666"
     pagecolor="#ffffff"
     id="base" />
  <metadata
     id="metadata6891">
    <rdf:RDF>
      <cc:Work
         rdf:about="">
        <dc:format>image/svg+xml</dc:format>
        <dc:type
           rdf:resource="http://purl.org/dc/dcmitype/StillImage" />
        <dc:title></dc:title>
      </cc:Work>
    </rdf:RDF>
  </metadata>
  <g
     id="layer1"
     inkscape:groupmode="layer"
     inkscape:label="Layer 1">
    <path
       style="fill:#8aabc2;fill-opacity:1;fill-rule:nonzero;stroke:none;stroke-width:1.17534"
       d="m 17.792222,99.809541 c 0,0 21.876948,0.954959 48.86389,0.954959 26.986902,0 48.859278,-0.954959 48.859278,-0.954959 0,0 -21.872376,-0.954991 -48.859278,-0.954991 -26.986942,0 -48.86389,0.954991 -48.86389,0.954991"
       id="path4989" />
    <path
       style="fill:#fac78c;fill-opacity:1;fill-rule:nonzero;stroke:none;stroke-width:1.17534"
       d="m 50.912948,99.667212 c 2.373652,0.477458 7.612178,0.325838 10.545951,0.192904 1.257974,-0.05497 2.093558,-0.105614 2.093558,-0.105614 0,0 2.359859,-9.269587 2.024726,-11.96921 -0.339765,-2.695025 -2.359893,-5.729781 -2.359893,-5.729781 0,0 4.044854,0.844779 8.424804,-1.345198 -0.67489,-2.277233 -11.88195,-7.162235 -11.88195,-7.162235 l -3.282666,2.947533 c 0,0 -1.776815,0.84478 -3.204638,5.982289 -1.42789,5.142141 0.07796,14.576979 0.07796,14.576979 0,0 -3.705089,2.359858 -2.43792,2.612399"
       id="path4991" />
    <path
       style="fill:#f0b075;fill-opacity:1;fill-rule:nonzero;stroke:none;stroke-width:1.17534"
       d="m 61.458899,99.860016 c 0.679495,-2.809802 2.189977,-9.411883 1.923676,-11.514669 -0.335133,-2.695026 -2.694992,-6.289903 -2.694992,-6.289903 0,0 1.684928,0 3.034756,-1.905318 1.290125,-1.836486 -3.714251,-3.663777 -6.850024,-3.663777 -0.137598,0 -0.270865,0 -0.394837,0.01 0,0 0.996271,-0.463703 2.727143,-0.463703 2.162457,0 5.468078,0.725406 9.402723,4.003508 0.54176,0.449943 1.08812,0.881495 1.63445,1.280929 -1.951229,0.725406 -3.746368,0.899886 -5.036493,0.899886 -1.225857,0 -1.988011,-0.160587 -1.988011,-0.160587 0,0 2.020128,3.034756 2.359893,5.729781 0.01666,0.183576 0.03332,0.390239 0.03332,0.624423 0,3.264309 -2.056843,11.344754 -2.056843,11.344754 0,0 -0.835617,0.05064 -2.093591,0.105614"
       id="path4993" />
    <path
       style="fill:#94573f;fill-opacity:1;fill-rule:nonzero;stroke:none;stroke-width:1.17534"
       d="m 54.255317,88.506067 c 0.5372,0 1.074366,-0.169916 1.551828,-0.619825 l 0.01,-0.358122 -0.358122,-0.01 c -1.492129,1.418666 -4.012674,-0.821819 -4.035629,-0.844774 l -0.358122,0.01666 0.01666,0.358122 c 0.08729,0.07796 1.629856,1.455409 3.172488,1.455409"
       id="path4995" />
    <path
       style="fill:#94573f;fill-opacity:1;fill-rule:nonzero;stroke:none;stroke-width:1.17534"
       d="m 52.657613,92.679423 c 0.587674,0 1.235018,-0.183575 1.804335,-0.752959 v -0.358088 h -0.358122 c -1.267169,1.267169 -2.979683,0.183575 -3.053147,0.137598 -0.114609,-0.07796 -0.270865,-0.04598 -0.348926,0.0733 -0.07796,0.11461 -0.04598,0.270865 0.0733,0.348926 0.01333,0.01 0.863137,0.550926 1.882396,0.550926"
       id="path4997" />
    <path
       style="fill:#94573f;fill-opacity:1;fill-rule:nonzero;stroke:none;stroke-width:1.17534"
       d="m 54.847589,84.78262 c 0.109946,0 0.215893,-0.01333 0.325838,-0.03332 0.137598,-0.02665 0.229553,-0.160587 0.2019,-0.298518 -0.02665,-0.137598 -0.160587,-0.229552 -0.298518,-0.197568 -1.464571,0.293853 -2.745501,-2.359859 -2.754696,-2.39201 -0.05964,-0.123938 -0.211228,-0.179244 -0.339764,-0.119274 -0.123939,0.05964 -0.178911,0.211228 -0.119274,0.335167 0.05497,0.119274 1.290124,2.704187 2.984281,2.704187"
       id="path4999" />
    <path
       style="fill:#fac78c;fill-opacity:1;fill-rule:nonzero;stroke:none;stroke-width:1.17534"
       d="m 83.188914,85.508026 c 0.069,0.789673 0.28919,1.753827 0.63359,2.805203 1.34523,4.127446 4.53607,9.572603 7.62134,10.853532 3.87957,1.597739 12.051866,-2.869472 12.556876,-2.869472 0.50502,0 1.3498,0.757523 1.43702,1.267136 0.078,0.505049 -1.68953,1.427889 -1.6069,2.020128 0.0826,0.592277 3.11741,0.932007 4.04482,0.08263 0.7346,-0.661137 0.73,-7.630535 0.28919,-11.106072 -0.11927,-0.941165 -0.27553,-1.629855 -0.45911,-1.864006 -0.84018,-1.101885 -7.997816,-0.596869 -10.697436,-0.339731 -2.69502,0.252541 -4.04482,3.034757 -4.04482,3.034757 l -2.27723,-4.559065 -7.49737,0.674931"
       id="path5001" />
    <path
       style="fill:#f0b075;fill-opacity:1;fill-rule:nonzero;stroke:none;stroke-width:1.17534"
       d="m 92.711014,91.494913 c 0,0 -1.57019,-3.034757 -2.13947,-3.594911 -0.26154,-0.266201 -1.33604,-0.505016 -2.64912,-0.505016 -1.30848,0 -2.85571,0.238882 -4.09992,0.918243 -0.22056,-0.684092 -0.39484,-1.331437 -0.50502,-1.919111 0.6749,0.05064 1.36356,0.07796 2.0752,0.07796 1.8227,0 3.76016,-0.169915 5.84916,-0.523406 l 1.72167,3.443386 c 0,0 1.34983,-2.782248 4.04483,-3.034756 1.42788,-0.133267 4.113706,-0.339764 6.441416,-0.339764 2.07064,0 3.86118,0.160586 4.25605,0.679528 0.18358,0.234217 0.33973,0.922807 0.45911,1.864006 -2.26804,-0.316843 -8.512066,-1.156991 -10.835176,-1.156991 -0.30285,0 -0.54176,0.01333 -0.69325,0.04598 -1.57019,0.335167 -3.92548,4.044854 -3.92548,4.044854"
       id="path5003" />
    <path
       style="fill:#94573f;fill-opacity:1;fill-rule:nonzero;stroke:none;stroke-width:1.17534"
       d="m 100.96593,98.909655 0.17458,-0.06896 c 1.77682,-1.689559 0.9458,-4.678405 0.91365,-4.802377 -0.0413,-0.133267 -0.17891,-0.211228 -0.31218,-0.174579 -0.13327,0.04131 -0.21123,0.17891 -0.17458,0.312178 0.01,0.02665 0.78051,2.823561 -0.77591,4.297327 l -0.01,0.358122 0.18358,0.07796"
       id="path5005" />
    <path
       style="fill:#94573f;fill-opacity:1;fill-rule:nonzero;stroke:none;stroke-width:1.17534"
       d="m 98.353574,99.584553 0.15592,-0.05497 c 1.707906,-1.34523 1.04678,-4.343238 1.01926,-4.46721 -0.0333,-0.133267 -0.16992,-0.224888 -0.30319,-0.188239 -0.13759,0.02665 -0.22022,0.165251 -0.1929,0.302849 0.01,0.02332 0.61979,2.805204 -0.83562,3.957597 -0.11027,0.08263 -0.1286,0.243212 -0.0413,0.353524 l 0.19757,0.09629"
       id="path5007" />
    <path
       style="fill:#fac78c;fill-opacity:1;fill-rule:nonzero;stroke:none;stroke-width:1.17534"
       d="m 37.428679,42.204045 c 0,0 3.939223,3.181683 8.411034,5.610408 2.695018,1.469202 5.592043,2.65831 7.938142,2.727175 6.234797,0.169916 12.97924,-2.111948 12.97924,-2.111948 L 69.902064,37.681729 65.4073,33.265027 c -0.730003,0.486658 -1.909916,0.932003 -3.369922,1.345198 -7.488207,2.134904 -22.43708,3.347 -23.001786,3.213833 -2.111945,2.515981 -1.606913,4.379987 -1.606913,4.379987"
       id="path5009" />
    <path
       style="fill:#f0b075;fill-opacity:1;fill-rule:nonzero;stroke:none;stroke-width:1.17534"
       d="m 54.448155,50.550791 c -0.224888,0 -0.449943,-0.0033 -0.6703,-0.01 -2.346099,-0.06897 -5.243124,-1.257974 -7.938142,-2.727143 2.254271,0.550926 4.967654,0.89069 7.763662,0.89069 2.20377,0 4.458048,-0.211228 6.579159,-0.688691 6.019038,-1.35899 4.912555,-10.504605 1.854844,-13.406227 1.460006,-0.413194 2.639919,-0.858539 3.369922,-1.345231 l 4.494764,4.416736 -1.23962,4.242255 c -0.0596,-0.01 -0.11494,-0.02332 -0.16991,-0.03332 -1.909919,1.519644 -3.590316,4.219267 -5.031931,7.460653 -2.37825,0.569284 -5.729782,1.198271 -9.012481,1.198271"
       id="path5011" />
    <path
       style="fill:#ab6e42;fill-opacity:1;fill-rule:nonzero;stroke:none;stroke-width:1.17534"
       d="m 89.676254,29.922658 c 6.73985,2.364456 12.359446,10.564275 12.359446,10.564275 0,0 -8.879346,-6.854622 -14.834116,2.020128 -7.86465,5.619603 -10.67445,1.460007 -10.67445,1.460007 0,0 8.54418,-13.819456 13.14912,-14.04441"
       id="path5013" />
    <path
       style="fill:#ab6e42;fill-opacity:1;fill-rule:nonzero;stroke:none;stroke-width:1.17534"
       d="m 56.477478,76.495544 c 0,0 5.050287,-2.359858 12.129866,3.539772 0.56931,0.472898 1.14319,0.922841 1.71251,1.340633 6.61588,4.898795 13.96175,6.648024 25.5912,3.549 3.5398,-4.889633 3.20464,-19.889001 0,-27.808759 0,0 -16.09666,-13.112407 -27.41849,-15.224323 -2.06144,1.639018 -3.851982,4.655416 -5.371659,8.236567 -4.508556,10.646901 -6.643427,26.36711 -6.643427,26.36711"
       id="path5015" />
    <path
       style="fill:#7f5130;fill-opacity:1;fill-rule:nonzero;stroke:none;stroke-width:1.17534"
       d="m 65.324642,61.16101 c -1.014629,0 -2.107352,-2.529741 -2.107352,-2.529741 0,0 1.597739,1.432454 2.359893,1.432454 0.757523,0 2.189976,-1.09269 2.189976,-1.09269 0,0.252541 -1.432453,2.189977 -2.442517,2.189977"
       id="path5017" />
    <path
       style="fill:#7f5130;fill-opacity:1;fill-rule:nonzero;stroke:none;stroke-width:1.17534"
       d="m 65.067536,70.173491 c 0.762154,0 2.194608,-1.09269 2.194608,-1.09269 0,0.252541 -1.432454,2.189977 -2.447115,2.189977 -1.010064,0 -2.107352,-2.529741 -2.107352,-2.529741 0,0 1.602336,1.432454 2.359859,1.432454"
       id="path5019" />
    <path
       style="fill:#7f5130;fill-opacity:1;fill-rule:nonzero;stroke:none;stroke-width:1.17534"
       d="m 80.406664,76.57817 c 0,0.252541 -1.43245,2.194574 -2.44251,2.194574 -1.01463,0 -2.10735,-2.529707 -2.10735,-2.529707 0,0 1.59773,1.43242 2.35985,1.43242 0.75756,0 2.19001,-1.097287 2.19001,-1.097287"
       id="path5021" />
    <path
       style="fill:#7f5130;fill-opacity:1;fill-rule:nonzero;stroke:none;stroke-width:1.17534"
       d="m 95.571324,72.537947 c 0,0.252541 -1.43246,2.189977 -2.44252,2.189977 -1.01003,0 -2.10735,-2.529741 -2.10735,-2.529741 0,0 1.60233,1.432454 2.35989,1.432454 0.75752,0 2.18998,-1.09269 2.18998,-1.09269"
       id="path5023" />
    <path
       style="fill:#7f5130;fill-opacity:1;fill-rule:nonzero;stroke:none;stroke-width:1.17534"
       d="m 81.416734,66.133268 c 0.75752,0 2.18998,-1.09732 2.18998,-1.09732 0,0.252541 -1.43246,2.19001 -2.44249,2.19001 -1.01006,0 -2.10735,-2.525143 -2.10735,-2.525143 0,0 1.6023,1.432453 2.35986,1.432453"
       id="path5025" />
    <path
       style="fill:#7f5130;fill-opacity:1;fill-rule:nonzero;stroke:none;stroke-width:1.17534"
       d="m 78.129434,55.766361 c 0,0.252541 -1.43245,2.19001 -2.44248,2.19001 -1.01007,0 -2.10735,-2.52974 -2.10735,-2.52974 0,0 1.6023,1.437051 2.35985,1.437051 0.75753,0 2.18998,-1.097321 2.18998,-1.097321"
       id="path5027" />
    <path
       style="fill:#a1663d;fill-opacity:1;fill-rule:nonzero;stroke:none;stroke-width:1.17534"
       d="m 85.392684,86.472146 c -6.02363,0 -10.7066,-1.864006 -15.07283,-5.096197 2.30935,-0.229553 4.48097,-1.671168 6.30826,-3.718849 0.38568,0.578478 0.86774,1.115644 1.33604,1.115644 1.01006,0 2.44251,-1.942033 2.44251,-2.194574 0,0 -1.43245,1.097287 -2.19001,1.097287 -0.30751,0 -0.74836,-0.234217 -1.16612,-0.509613 2.36443,-2.86031 4.08614,-6.712292 4.65086,-10.086813 0.91824,-0.459105 1.90532,-1.831888 1.90532,-2.043083 0,0 -0.99628,0.762154 -1.76759,1.014662 0.11927,-1.170751 0.078,-2.263441 -0.1376,-3.204639 -0.4637,-1.987977 -1.88699,-4.389149 -3.82906,-6.602114 0.16059,-0.234217 0.2572,-0.413194 0.2572,-0.477496 0,0 -0.16525,0.128603 -0.41779,0.293854 -3.18168,-3.562727 -7.68564,-6.611276 -11.629443,-6.611276 -1.037617,0 -2.033888,0.215893 -2.961326,0.679495 1.51971,-3.581117 3.310252,-6.597516 5.371689,-8.236567 0.62899,0.119274 1.26717,0.266201 1.91912,0.449943 -0.12861,0.436149 -0.22956,0.941198 -0.28453,1.515079 2.59401,4.136641 6.07414,7.460653 9.81135,10.008785 0.57848,0.390239 1.16615,0.766718 1.75383,1.120209 -0.64278,0.932036 -0.79427,1.804369 -0.80807,1.864039 -0.0166,0.137598 0.0736,0.266201 0.21123,0.28919 l 0.0413,0.0033 c 0.11928,0 0.22956,-0.08729 0.24788,-0.211228 0.003,-0.01333 0.15159,-0.826422 0.74376,-1.680364 1.10649,0.647345 2.22213,1.230421 3.33321,1.753827 -0.34433,1.414097 0.15159,2.759294 0.15626,2.782249 l 0.23888,0.165251 0.0873,-0.01666 c 0.13327,-0.05064 0.19757,-0.197569 0.14693,-0.325838 -0.0267,-0.07796 -0.43615,-1.198304 -0.16992,-2.391976 0.95956,0.436149 1.91451,0.821791 2.86031,1.166153 0.18357,0.06896 0.37648,0.133267 0.55552,0.192904 0.4178,0.123938 0.83102,0.234216 1.23502,0.330502 0.52801,1.35899 1.90076,2.49759 1.97882,2.561858 l 0.16058,0.05497 0.19291,-0.09195 c 0.0873,-0.105615 0.0736,-0.266201 -0.0367,-0.353525 -0.0133,-0.01333 -1.12944,-0.941198 -1.68496,-2.038485 1.23042,0.247877 2.39661,0.36272 3.49849,0.36272 0.68866,0 1.34979,-0.04598 1.98338,-0.133267 1.15696,3.851982 1.77678,8.73242 1.77678,13.291451 0,5.197213 -0.80806,9.981199 -2.52974,12.364046 -3.953,1.051377 -7.41474,1.547197 -10.5184,1.547197 m 5.6288,-14.273929 c 0,0 1.09729,2.529774 2.10735,2.529774 1.01007,0 2.44252,-1.937502 2.44252,-2.19001 0,0 -1.43245,1.09269 -2.19001,1.09269 -0.75752,0 -2.35986,-1.432454 -2.35986,-1.432454"
       id="path5029" />
    <path
       style="fill:#784c2e;fill-opacity:1;fill-rule:nonzero;stroke:none;stroke-width:1.17534"
       d="m 77.964154,78.772744 c -0.4683,0 -0.95036,-0.537166 -1.33604,-1.115644 0.14226,-0.160587 0.2802,-0.325838 0.42242,-0.491256 0.41776,0.27553 0.85854,0.509613 1.16612,0.509613 0.75756,0 2.19001,-1.097287 2.19001,-1.097287 0,0.252541 -1.43245,2.194574 -2.44251,2.194574"
       id="path5031" />
    <path
       style="fill:#784c2e;fill-opacity:1;fill-rule:nonzero;stroke:none;stroke-width:1.17534"
       d="m 93.128804,74.727924 c -1.01003,0 -2.10735,-2.529741 -2.10735,-2.529741 0,0 1.60233,1.432454 2.35989,1.432454 0.75752,0 2.18998,-1.09269 2.18998,-1.09269 0,0.252541 -1.43246,2.189977 -2.44252,2.189977"
       id="path5033" />
    <path
       style="fill:#784c2e;fill-opacity:1;fill-rule:nonzero;stroke:none;stroke-width:1.17534"
       d="m 81.701394,67.079031 c 0.0596,-0.348926 0.10561,-0.693255 0.13759,-1.028421 0.77132,-0.252541 1.76759,-1.014662 1.76759,-1.014662 0,0.211228 -0.98707,1.583978 -1.90532,2.043083"
       id="path5035" />
    <path
       style="fill:#784c2e;fill-opacity:1;fill-rule:nonzero;stroke:none;stroke-width:1.17534"
       d="m 77.872334,56.243857 c -0.0507,-0.05964 -0.10562,-0.123938 -0.16059,-0.183575 0.25254,-0.165251 0.41779,-0.293854 0.41779,-0.293854 0,0.0643 -0.0963,0.243212 -0.2572,0.477496"
       id="path5037" />
    <path
       style="fill:#94573f;fill-opacity:1;fill-rule:nonzero;stroke:none;stroke-width:1.17534"
       d="m 64.052908,39.642153 c 0.711612,7.07961 2.91998,8.135585 3.613235,7.217342 0.821821,2.708818 4.930941,3.048549 5.794081,1.611497 -0.11927,1.877799 4.33408,0.04131 6.34957,-4.467209 0,0 0.71625,0.9366 2.03393,-0.344329 1.32684,-1.285527 2.50218,-5.95477 2.50218,-5.95477 0,0 0.26154,1.308516 2.01094,0.482094 1.74923,-0.821825 3.2092,-6.345009 3.2092,-6.345009 0,0 1.2672,0.229552 1.24425,-2.975086 -0.0167,-3.209236 -2.49303,-7.873848 -2.49303,-7.873848 0,0 1.49672,-0.459138 1.07433,-1.492157 -1.58394,-3.897894 -8.17689,-4.265211 -8.17689,-4.265211 0,0 0.71624,-0.982511 -0.20657,-1.097287 -0.92281,-0.114943 -6.36796,3.186281 -6.36796,3.186281 -3.18625,1.496722 -8.507435,11.303474 -8.948182,12.625749 -1.864006,1.556393 -3.34237,10.591829 -1.639051,9.691943"
       id="path5039" />
    <path
       style="fill:#fac78c;fill-opacity:1;fill-rule:nonzero;stroke:none;stroke-width:1.17534"
       d="m 65.691959,29.95021 c 0.459105,1.496722 2.759293,1.684962 2.759293,1.684962 l 4.265212,1.423258 c 0,0 4.03103,0.385675 6.17513,0.07796 2.14866,-0.298518 4.82073,-11.762612 4.74267,-12.488018 -0.0736,-0.72997 -5.63796,-3.4158 -8.99413,-3.323979 -3.18624,1.496722 -8.507428,11.303474 -8.948175,12.625716"
       id="path5041" />
    <g
       transform="matrix(1.1753409,0,0,1.1753409,-342.91808,-237.95407)"
       clip-path="url(#clip34)"
       clip-rule="nonzero"
       id="g5049">
      <g
         clip-path="url(#clip35)"
         clip-rule="nonzero"
         id="g5047">
        <g
           clip-path="url(#clip36)"
           clip-rule="nonzero"
           id="g5045">
          <path
             style="fill:url(#linear2);fill-rule:nonzero;stroke:none"
             d="m 349.71094,220.67187 8.99609,3.81641 -4.44531,10.47656 -8.9961,-3.8164 z m 0,0"
             id="path5043" />
        </g>
      </g>
    </g>
    <path
       style="fill:#4a2b1e;fill-opacity:1;fill-rule:nonzero;stroke:none;stroke-width:1.17534"
       d="m 70.544814,24.215831 c 1.0009,0.261536 0.23421,1.992575 -0.4178,1.84105 -0.65654,-0.155922 -0.5188,-2.093558 0.4178,-1.84105"
       id="path5051" />
    <path
       style="fill:#94573f;fill-opacity:1;fill-rule:nonzero;stroke:none;stroke-width:1.17534"
       d="m 73.487774,22.287524 c 0.0643,0.243212 0.26621,3.700492 0.8723,3.879536 0.60607,0.179244 6.49194,-0.762121 6.67098,-1.005466 0.17925,-0.243213 0.40863,-2.736339 0.0413,-3.034757 -0.36269,-0.302849 -5.70223,-0.211228 -5.70223,-0.211228 0,0 -0.5326,2.612367 -0.59687,2.428725 -0.0596,-0.178911 -1.28553,-2.056843 -1.28553,-2.056843"
       id="path5053" />
    <path
       style="fill:#94573f;fill-opacity:1;fill-rule:nonzero;stroke:none;stroke-width:1.17534"
       d="m 73.616314,19.473125 c 0,0 -0.76672,3.071504 -0.95955,3.259744 -0.19291,0.192904 -3.41584,-0.307514 -3.62703,-0.633585 -0.21123,-0.325837 0.76672,-2.878667 1.15239,-3.071504 0.38564,-0.18824 1.97878,0.02332 1.97878,0.02332 l -0.0413,2.226726 1.49675,-1.804302"
       id="path5055" />
    <path
       style="fill:#4a2b1e;fill-opacity:1;fill-rule:nonzero;stroke:none;stroke-width:1.17534"
       d="m 77.665734,26.566494 c -1.05138,-0.670299 -2.94753,-0.206564 -2.94753,-0.206564 l 0.0826,0.840182 c 0,0 0.80347,-0.757556 2.86491,-0.633584"
       id="path5057" />
    <path
       style="fill:#fac78c;fill-opacity:1;fill-rule:nonzero;stroke:none;stroke-width:1.17534"
       d="m 86.471614,56.28517 c 0.50042,0.918243 1.25338,1.643648 2.30935,2.098189 0.18358,0.06897 0.37648,0.133267 0.55553,0.192904 7.19438,2.130306 12.474216,-0.114943 15.054466,-3.819866 2.58945,-3.709653 0.90448,-10.334722 -2.35986,-14.273962 -0.73916,-0.651942 -1.48752,-1.198303 -2.222126,-1.634453 -6.9648,-4.187149 -13.39246,0.403999 -13.39246,0.403999 l 0.67033,2.782282 0.11461,0.472865 c 0,0 -3.33321,9.182363 -0.73,13.778142"
       id="path5059" />
    <path
       style="fill:#fac78c;fill-opacity:1;fill-rule:nonzero;stroke:none;stroke-width:1.17534"
       d="m 70.127014,43.856856 c 2.59401,4.136674 6.07415,7.460686 9.81135,10.008785 2.88787,1.960424 5.92722,3.457146 8.8426,4.517718 0.18358,0.06897 0.37648,0.133267 0.55553,0.192904 1.33603,-0.02332 2.67207,-0.431585 3.89792,-1.138633 4.25142,-2.447082 7.231096,-8.52579 4.53148,-15.150859 -3.42043,0.270865 -7.15304,0.110278 -10.67905,-0.252541 -7.81881,-0.803467 -14.59997,-2.561892 -14.59997,-2.561892 0,0 -2.02469,0.90445 -2.35986,4.384584"
       id="path5061" />
    <path
       style="fill:#94573f;fill-opacity:1;fill-rule:nonzero;stroke:none;stroke-width:1.17534"
       d="m 92.711014,61.523696 0.1929,-0.09162 c 0.0873,-0.105614 0.0736,-0.266201 -0.0366,-0.353524 -0.0167,-0.01999 -2.18541,-1.818095 -1.97881,-3.379085 0.0826,-0.647378 0.57851,-1.179946 1.47836,-1.59314 0.12394,-0.05497 0.18358,-0.206564 0.12394,-0.335167 -0.0596,-0.123938 -0.21123,-0.178911 -0.33513,-0.119274 -1.06517,0.486658 -1.66201,1.152393 -1.77219,1.978782 -0.23421,1.841084 2.06601,3.755597 2.16702,3.838256 l 0.16059,0.05497"
       id="path5063" />
    <path
       style="fill:#94573f;fill-opacity:1;fill-rule:nonzero;stroke:none;stroke-width:1.17534"
       d="m 85.856394,59.953544 0.0873,-0.01666 c 0.13326,-0.05064 0.19756,-0.197569 0.14692,-0.325838 -0.046,-0.123938 -1.12024,-3.076102 1.46001,-4.522316 0.12394,-0.0643 0.16525,-0.220557 0.0963,-0.344329 -0.069,-0.119274 -0.22055,-0.160586 -0.34436,-0.09628 -2.96129,1.662006 -1.69412,5.109957 -1.68493,5.142107 l 0.23889,0.165251"
       id="path5065" />
    <path
       style="fill:#94573f;fill-opacity:1;fill-rule:nonzero;stroke:none;stroke-width:1.17534"
       d="m 81.136674,57.143743 c 0.11927,0 0.22955,-0.08729 0.24787,-0.211229 0.003,-0.01999 0.34893,-1.923709 2.12571,-2.970488 0.11928,-0.06897 0.16059,-0.224888 0.092,-0.348926 -0.0736,-0.114943 -0.22489,-0.156256 -0.34433,-0.08729 -1.99258,1.170751 -2.3553,3.236756 -2.37365,3.324012 -0.0167,0.137598 0.0736,0.266201 0.21123,0.28919 l 0.0413,0.0033"
       id="path5067" />
    <path
       style="fill:#94573f;fill-opacity:1;fill-rule:nonzero;stroke:none;stroke-width:1.17534"
       d="m 53.162628,52.199037 0.155922,-0.05497 c 0.07363,-0.05964 1.785978,-1.473766 1.551828,-5.045688 -0.01,-0.137598 -0.137598,-0.252541 -0.266201,-0.234217 -0.137598,0.01 -0.243212,0.128603 -0.234217,0.266201 0.211229,3.291861 -1.354392,4.604941 -1.368185,4.618701 -0.105614,0.08729 -0.123939,0.247876 -0.03665,0.353524 l 0.197569,0.09628"
       id="path5069" />
    <path
       style="fill:#94573f;fill-opacity:1;fill-rule:nonzero;stroke:none;stroke-width:1.17534"
       d="m 47.207892,50.403897 0.174579,-0.07796 c 0.05497,-0.05064 1.31308,-1.340633 1.31308,-4.2193 0,-0.142263 -0.114943,-0.252541 -0.252541,-0.252541 -0.142262,0 -0.252541,0.110278 -0.252541,0.252541 0,2.653679 -1.152393,3.851983 -1.166186,3.865776 l 0.0033,0.353524 0.179244,0.07796"
       id="path5071" />
    <path
       style="fill:#94573f;fill-opacity:1;fill-rule:nonzero;stroke:none;stroke-width:1.17534"
       d="m 42.488157,47.929229 0.110146,-0.02665 c 0.07803,-0.03665 1.91451,-0.977913 2.382814,-3.204638 0.02765,-0.137598 -0.0597,-0.270865 -0.197435,-0.298518 -0.128536,-0.02665 -0.266301,0.05497 -0.298419,0.192904 -0.417785,1.983379 -2.093574,2.851114 -2.111935,2.860309 -0.123972,0.0643 -0.17448,0.215893 -0.110145,0.339731 l 0.224988,0.137599"
       id="path5073" />
    <path
       style="fill:#e8a166;fill-opacity:1;fill-rule:nonzero;stroke:none;stroke-width:1.17534"
       d="m 37.428679,42.199447 c 0,0 -1.80892,-0.123938 -2.401188,-0.422389 -0.587671,-0.293854 -1.80892,-1.432421 -1.726281,-2.318547 0.08262,-0.881494 1.010054,-2.231289 1.303887,-2.401171 0.298419,-0.165251 0.381071,-0.376479 0.927426,-0.252541 0.550942,0.128603 0.468293,-0.376479 0.968741,0.169915 0.509616,0.550926 1.225833,1.813498 1.308482,1.937469 0.08722,0.128603 0.633581,1.055975 0.633581,1.055975 l -1.014648,2.231323"
       id="path5075" />
    <path
       style="fill:#633a2e;fill-opacity:1;fill-rule:nonzero;stroke:none;stroke-width:1.17534"
       d="m 21.758998,37.52564 h 46.935566 v 0.417792 H 21.758998 V 37.52564"
       id="path5077" />
    <path
       style="fill:#633a2e;fill-opacity:1;fill-rule:nonzero;stroke:none;stroke-width:1.17534"
       d="m 48.479625,70.935612 c 0.335167,0 0.665736,-0.169916 0.858573,-0.477463 0.293854,-0.472898 0.151591,-1.097287 -0.321507,-1.391141 -0.133267,-0.08729 -13.566917,-8.815046 -13.566917,-32.174953 0,-23.378264 13.351158,-30.3752148 13.484292,-30.4440808 0.500418,-0.252541 0.697853,-0.858539 0.449943,-1.35899 -0.252541,-0.500451 -0.858573,-0.697853 -1.358991,-0.449943 -0.596869,0.303182 -14.595362,7.6443288 -14.595362,32.2530138 0,24.544418 13.920432,33.520184 14.512703,33.887468 0.169916,0.105614 0.353525,0.156255 0.537166,0.156255"
       id="path5079" />
    <path
       style="fill:#979cbd;fill-opacity:1;fill-rule:nonzero;stroke:none;stroke-width:1.17534"
       d="m 24.059176,37.736835 0.505032,-1.6069 -5.220172,1.6069 5.220172,1.597738 -0.505032,-1.597738"
       id="path5081" />
    <path
       style="fill:#b8b594;fill-opacity:1;fill-rule:nonzero;stroke:none;stroke-width:1.17534"
       d="m 44.085879,69.080801 0.257105,-0.114942 24.35618,-28.30921 -0.15159,-0.215893 C 52.643753,17.457361 44.480656,5.7360952 44.274055,5.6029612 c -0.156122,-0.105614 -0.362709,-0.0643 -0.468303,0.09162 -0.09179,0.137599 -0.06887,0.312178 0.04594,0.426988 0.606042,0.730003 15.853343,22.7263218 23.993492,34.4889008 L 43.833338,68.524811 c -0.123972,0.137599 -0.105681,0.353525 0.03668,0.472898 l 0.215792,0.08263"
       id="path5083" />
    <path
       style="fill:#fac78c;fill-opacity:1;fill-rule:nonzero;stroke:none;stroke-width:1.17534"
       d="m 85.149344,28.384623 c 3.01183,-0.404032 3.70509,1.937469 3.62703,2.93374 -0.078,1.000868 -2.30476,3.645386 -3.6867,3.760195 -1.38195,0.114943 -2.20377,-2.01553 -2.20377,-2.01553 0,0 1.91911,-2.493026 2.26344,-4.678405"
       id="path5085" />
    <path
       style="fill:#fac78c;fill-opacity:1;fill-rule:nonzero;stroke:none;stroke-width:1.17534"
       d="m 72.486874,39.472305 c -0.22489,-1.850246 -1.34979,-2.695026 -2.58481,-2.470071 -1.23502,0.224888 -2.414965,-1.179913 -2.864908,-2.020095 -0.449943,-0.844779 -2.419529,1.854811 0.560121,2.470038 -2.304753,0.05497 -2.020094,1.349795 -1.459973,1.574783 -0.954958,0.224888 -0.619825,1.4049 -0.110279,1.570185 -0.734601,0.509613 -0.509613,1.744631 0.280194,1.799737 -0.564719,0.730004 0.560121,2.134905 3.819835,1.459974 2.97508,-2.020095 2.35989,-4.384551 2.35989,-4.384551"
       id="path5087" />
    <path
       style="fill:#fac78c;fill-opacity:1;fill-rule:nonzero;stroke:none;stroke-width:1.17534"
       d="m 39.20087,38.237286 c -0.674907,-0.459138 -1.432447,-2.061441 -1.85483,-2.231323 -0.422393,-0.169915 -1.813517,0.42239 -3.076092,-0.546361 -1.262575,-0.968718 -1.391131,1.432453 0.169882,1.643648 1.560996,0.206564 1.473773,-0.04598 1.473773,-0.04598 0,0 0.716217,3.122013 2.318536,3.122013 1.597735,0 0.968741,-1.942067 0.968741,-1.942067"
       id="path5089" />
    <path
       style="fill:#fac78c;fill-opacity:1;fill-rule:nonzero;stroke:none;stroke-width:1.17534"
       d="m 35.238689,36.722173 c 0.156089,1.170751 -2.653709,0.927439 -2.777661,0.381077 -0.128569,-0.550925 2.695009,-1.014628 2.777661,-0.381077"
       id="path5091" />
    <path
       style="fill:#fac78c;fill-opacity:1;fill-rule:nonzero;stroke:none;stroke-width:1.17534"
       d="m 35.18359,38.554062 c 0.23415,0.844779 -2.506779,1.253409 -2.672071,0.165251 -0.169882,-1.083528 2.460872,-0.918243 2.672071,-0.165251"
       id="path5093" />
    <path
       style="fill:#fac78c;fill-opacity:1;fill-rule:nonzero;stroke:none;stroke-width:1.17534"
       d="m 35.252462,39.954365 c 0.08263,1.033019 -2.45169,0.615227 -2.497597,-0.18824 -0.05054,-0.798869 2.401172,-0.941165 2.497597,0.18824"
       id="path5095" />
    <path
       style="fill:#fac78c;fill-opacity:1;fill-rule:nonzero;stroke:none;stroke-width:1.17534"
       d="m 35.353462,40.234425 c 0.399438,0.798869 -1.505907,1.460007 -2.121115,0.798869 -0.610639,-0.65654 1.841054,-1.368185 2.121115,-0.798869"
       id="path5097" />
    <path
       style="fill:#f0b075;fill-opacity:1;fill-rule:nonzero;stroke:none;stroke-width:1.17534"
       d="m 94.680634,59.402585 c -1.10189,0 -2.26804,-0.114943 -3.4985,-0.362686 -0.11027,-0.220224 -0.19756,-0.445345 -0.25254,-0.670333 0.79428,-0.192904 1.57019,-0.505016 2.30479,-0.932003 0.42699,0.02665 0.84938,0.03665 1.26257,0.03665 2.47464,0 4.6233,-0.445345 5.963926,-1.538034 4.2193,-3.438789 4.09073,-12.088583 -0.651936,-17.088362 0.734596,0.436183 1.482956,0.982511 2.222126,1.634454 2.15326,2.598606 3.62243,6.372561 3.62243,9.701171 0.003,1.712481 -0.38108,3.310219 -1.26257,4.572791 -1.89156,2.71798 -5.229326,4.646287 -9.710336,4.646287 m -4.10908,-0.495853 c -0.40404,-0.09629 -0.81723,-0.206564 -1.23506,-0.330502 0.36732,-0.0033 0.7346,-0.04131 1.09729,-0.105614 0.0366,0.146927 0.0826,0.289189 0.1376,0.436149"
       id="path5099" />
    <path
       style="fill:#f0b075;fill-opacity:1;fill-rule:nonzero;stroke:none;stroke-width:1.17534"
       d="m 89.336494,58.576196 c -0.17891,-0.05964 -0.37188,-0.123938 -0.55553,-0.192904 -0.94576,-0.344362 -1.90075,-0.730003 -2.86031,-1.166186 0.0733,-0.325838 0.19757,-0.661104 0.39028,-0.973316 0.055,0.01333 0.10561,0.02665 0.16058,0.04131 1.33144,0.358122 2.69959,0.651942 4.04023,0.85854 -0.0596,0.156255 -0.10562,0.321506 -0.12861,0.486657 -0.0333,0.284525 -0.0133,0.564719 0.0506,0.840182 -0.36268,0.0643 -0.73,0.10095 -1.09728,0.105614 m 1.59314,-0.206564 c -0.055,-0.224888 -0.0733,-0.449942 -0.0413,-0.670299 0.0167,-0.169916 0.069,-0.325838 0.14693,-0.477496 0.74376,0.10095 1.48296,0.17458 2.19917,0.215893 -0.73456,0.426987 -1.51048,0.739165 -2.30475,0.932002 m -5.46811,-1.363588 c -1.11105,-0.523372 -2.22673,-1.106482 -3.33318,-1.753827 0.0736,-0.100949 0.1516,-0.206564 0.23422,-0.307513 1.07893,0.426987 2.24508,0.81726 3.44795,1.161588 -0.16059,0.293854 -0.27553,0.596837 -0.34892,0.899852 m -3.76936,-2.020094 c -0.58768,-0.353524 -1.17535,-0.730004 -1.75383,-1.120243 0.59687,0.303183 1.24421,0.596837 1.92831,0.881495 -0.0643,0.07796 -0.11928,0.160587 -0.17458,0.238881"
       id="path5101" />
    <path
       style="fill:#8f4c35;fill-opacity:1;fill-rule:nonzero;stroke:none;stroke-width:1.17534"
       d="m 91.182134,59.039899 c -0.20189,-0.04131 -0.40399,-0.08729 -0.61059,-0.133267 -0.055,-0.146927 -0.10095,-0.28919 -0.1376,-0.436183 -0.0643,-0.27553 -0.0826,-0.555524 -0.0506,-0.840182 0.0233,-0.165251 0.069,-0.330502 0.1286,-0.486658 0.17458,0.02665 0.34893,0.05064 0.52337,0.07796 -0.078,0.151592 -0.1286,0.307514 -0.14692,0.477496 -0.0333,0.220224 -0.0133,0.445345 0.0413,0.6703 0.055,0.224888 0.14226,0.449943 0.25254,0.6703"
       id="path5103" />
    <path
       style="fill:#8f4c35;fill-opacity:1;fill-rule:nonzero;stroke:none;stroke-width:1.17534"
       d="m 85.920654,57.217206 c -0.15159,-0.06897 -0.30751,-0.142263 -0.4591,-0.211228 0.0736,-0.303183 0.18824,-0.606032 0.34893,-0.899886 0.16525,0.04598 0.33516,0.09195 0.50045,0.137599 -0.19291,0.312177 -0.31685,0.647377 -0.39028,0.973348"
       id="path5105" />
    <path
       style="fill:#8f4c35;fill-opacity:1;fill-rule:nonzero;stroke:none;stroke-width:1.17534"
       d="m 82.128344,55.252151 c -0.14693,-0.08729 -0.29385,-0.17458 -0.43615,-0.266201 0.055,-0.07796 0.11028,-0.160587 0.17458,-0.238881 0.16525,0.0643 0.32584,0.133267 0.49585,0.197235 -0.0826,0.10095 -0.16058,0.206564 -0.23421,0.307514"
       id="path5107" />
  </g>
</svg>
