<?xml version="1.0" encoding="UTF-8" standalone="no"?>
<svg
   xmlns:dc="http://purl.org/dc/elements/1.1/"
   xmlns:cc="http://creativecommons.org/ns#"
   xmlns:rdf="http://www.w3.org/1999/02/22-rdf-syntax-ns#"
   xmlns:svg="http://www.w3.org/2000/svg"
   xmlns="http://www.w3.org/2000/svg"
   xmlns:xlink="http://www.w3.org/1999/xlink"
   xmlns:sodipodi="http://sodipodi.sourceforge.net/DTD/sodipodi-0.dtd"
   xmlns:inkscape="http://www.inkscape.org/namespaces/inkscape"
   sodipodi:docname="favicon.svg"
   inkscape:version="1.0 (4035a4fb49, 2020-05-01)"
   id="svg2909"
   version="1.1"
   viewBox="0 0 31.749999 31.750001"
   height="120"
   width="120">
  <defs
     id="defs2903">
    <linearGradient
       inkscape:collect="always"
       xlink:href="#linearGradient1613"
       id="linearGradient2705"
       gradientUnits="userSpaceOnUse"
       gradientTransform="matrix(-14.365038,31.017139,-32.506545,-13.706851,24.371251,1.7699454)"
       x1="0"
       y1="0"
       x2="1"
       y2="0"
       spreadMethod="pad" />
    <linearGradient
       x1="0"
       y1="0"
       x2="1"
       y2="0"
       gradientUnits="userSpaceOnUse"
       gradientTransform="matrix(224.65,26.6956,26.6956,-224.65,2740.1,1818.84)"
       spreadMethod="pad"
       id="linearGradient1613">
      <stop
         style="stop-opacity:1;stop-color:#a4aab4"
         offset="0"
         id="stop1607" />
      <stop
         style="stop-opacity:1;stop-color:#a4aab4"
         offset="0.24752624"
         id="stop1609" />
      <stop
         style="stop-opacity:1;stop-color:#7982a1"
         offset="1"
         id="stop1611" />
    </linearGradient>
  </defs>
  <sodipodi:namedview
     inkscape:window-maximized="1"
     inkscape:window-y="1110"
     inkscape:window-x="0"
     inkscape:window-height="1011"
     inkscape:window-width="1920"
     units="px"
     showgrid="false"
     inkscape:document-rotation="0"
     inkscape:current-layer="layer1"
     inkscape:document-units="mm"
     inkscape:cy="52.04815"
     inkscape:cx="53.155743"
     inkscape:zoom="1.5729376"
     inkscape:pageshadow="2"
     inkscape:pageopacity="0.0"
     borderopacity="1.0"
     bordercolor="#666666"
     pagecolor="#ffffff"
     id="base" />
  <metadata
     id="metadata2906">
    <rdf:RDF>
      <cc:Work
         rdf:about="">
        <dc:format>image/svg+xml</dc:format>
        <dc:type
           rdf:resource="http://purl.org/dc/dcmitype/StillImage" />
        <dc:title></dc:title>
      </cc:Work>
    </rdf:RDF>
  </metadata>
  <g
     id="layer1"
     inkscape:groupmode="layer"
     inkscape:label="Layer 1">
    <path
       id="path1615-2-0"
       style="fill:url(#linearGradient2705);fill-opacity:1;fill-rule:nonzero;stroke:none;stroke-width:0.153451"
       d="M 19.862038,0.15629571 C 18.471761,0.3166949 17.248429,1.4871203 15.864936,0.93138711 14.282379,0.29551796 12.668605,1.4845369 12.470713,1.8448084 12.271218,2.2076717 9.6574759,2.284812 8.6185873,3.3005742 c -1.0397348,1.0170485 -4.5371336,7.4068848 -5.1431,9.0990768 -0.606011,1.692192 -2.9976812,3.413443 -3.1595038,5.175319 -0.15897268,1.760048 -0.0178121,4.440895 0.51543664,6.70135 0.48849576,2.080957 -0.90565444,2.44096 0.085053,3.930344 0.084607,0.127342 0.15585546,0.247121 0.27831346,0.393031 0.1732223,0.200552 0.3540148,0.377948 0.5407743,0.526977 l 0.00445,0.0022 c 0.2012763,0.160782 0.416357,0.299384 0.6328181,0.412789 1.3901424,0.760636 2.9509245,0.643917 3.6220386,1.451368 0.8722568,1.048204 4.4955424,-1.749647 5.1108594,-0.522578 0.178566,0.365583 0.607793,0.593868 1.187397,0.69824 l 0.393647,0.04389 h 0.01336 c 1.36663,0.109879 3.338426,-0.355555 4.979659,-1.297674 3.31349,0.117144 13.111773,-5.735772 13.705716,-6.819917 0.0045,-0.0136 0.0024,-0.04738 0.0089,-0.06369 C 31.803646,21.529279 26.805225,8.8324115 26.442304,8.0433325 26.157756,7.4367389 23.788885,3.2711797 21.943511,1.2519602 21.378646,0.62642042 20.86214,0.20660795 20.468494,0.15849244 c -0.20662,-0.0263437 -0.406561,-0.025069 -0.60521,-0.002248 z M 7.7694416,26.109748 c 0.068576,0.07597 0.1571915,0.154153 0.2738605,0.23055 -0.1175596,-0.07691 -0.205284,-0.154069 -0.2738605,-0.23055 z" />
    <path
       sodipodi:nodetypes="ccccccccccccccccccccccc"
       d="m 3.7042712,21.938768 c 0.8681155,1.908551 -0.1694506,1.217376 -0.5479561,3.155801 -0.3611394,1.922337 -0.4869345,1.692191 0.1748165,2.675066 -0.4381767,0.526611 -0.7631684,0.638775 -2.41430216,0.437038 0.084607,0.127384 0.15585546,0.247121 0.27831346,0.393031 0.1732223,0.200552 0.3540147,0.377947 0.5407742,0.526972 l 0.00445,0.0022 c 0.2012763,0.160782 0.416357,0.299384 0.6328181,0.412789 1.3901424,0.760641 2.9509245,0.64393 3.6220386,1.451386 0.8722568,1.048199 4.4955422,-1.74966 5.1108602,-0.522596 0.178566,0.36554 0.607748,0.593868 1.187397,0.69824 l 0.393646,0.04393 h 0.01336 c 1.366675,0.109878 3.33847,-0.355555 4.979704,-1.297666 3.313489,0.117145 13.111772,-5.735784 13.705715,-6.819925 0.0045,-0.0136 0.0025,-0.04738 0.0089,-0.06369 -0.211518,-0.51903 -0.490589,-0.806856 -0.731764,-0.717997 -0.800162,0.293434 -4.437386,1.964594 -5.651634,2.478972 -1.195813,0.503768 -0.574618,-1.065509 -2.027325,-2.773202 0.127356,0.798669 -0.329078,3.641618 -2.3495,4.593449 -2.039971,0.949104 -5.475503,0.655865 -7.724989,1.093468 -2.235325,0.431004 -3.0223511,-0.5084 -4.4274113,-1.137373 -2.7889594,-0.70539 -3.5919793,-4.190345 -4.7779115,-4.629893 z"
       style="fill:#69698f;fill-opacity:1;fill-rule:nonzero;stroke:none;stroke-width:0.153451"
       id="path1615-2-0-7" />
    <text
       xml:space="preserve"
       style="font-style:normal;font-weight:normal;font-size:11.8823px;line-height:1.25;font-family:sans-serif;letter-spacing:-1.55063px;word-spacing:-0.317848px;opacity:0.538842;fill:#000000;fill-opacity:1;stroke:none;stroke-width:0.297055"
       x="-3.5919256"
       y="25.009199"
       id="text2663"
       transform="matrix(0.98030441,-0.35422119,0.38829664,0.87978499,0,0)"><tspan
         sodipodi:role="line"
         id="tspan2661"
         x="-3.5919256"
         y="25.009199"
         style="font-style:normal;font-variant:normal;font-weight:bold;font-stretch:normal;font-family:Purisa;-inkscape-font-specification:'Purisa Bold';stroke-width:0.297055"
         dx="0"
         dy="0"><tspan
   style="letter-spacing:-0.811356px;stroke-width:0.297055"
   id="tspan2769">CS</tspan>S</tspan></text>
  </g>
</svg>
