<?xml version="1.0" standalone="no"?>
<!DOCTYPE svg PUBLIC "-//W3C//DTD SVG 20010904//EN"
 "http://www.w3.org/TR/2001/REC-SVG-20010904/DTD/svg10.dtd">
<svg version="1.0" xmlns="http://www.w3.org/2000/svg"
 width="700.000000pt" height="700.000000pt" viewBox="0 0 700.000000 700.000000"
 preserveAspectRatio="xMidYMid meet">
<metadata>
Created by potrace 1.11, written by Peter Selinger 2001-2013
</metadata>
<g transform="translate(0.000000,700.000000) scale(0.100000,-0.100000)"
fill="#000000" stroke="none">
<path d="M4330 6958 c-115 -30 -158 -45 -281 -93 -212 -83 -271 -99 -374 -99
-72 0 -108 6 -180 29 -119 38 -108 36 -210 37 -177 1 -382 -81 -506 -204 -67
-66 -82 -73 -260 -112 -143 -32 -303 -74 -349 -93 -8 -4 -17 -7 -20 -8 -139
-48 -264 -139 -335 -245 -16 -25 -32 -47 -35 -50 -23 -21 -380 -598 -380 -614
0 -4 -12 -25 -26 -48 -111 -175 -497 -922 -574 -1108 -90 -222 -137 -299 -315
-519 -342 -422 -402 -533 -421 -776 -12 -159 -6 -551 11 -705 2 -19 6 -66 9
-105 4 -38 8 -81 11 -95 2 -14 7 -45 10 -70 3 -25 8 -56 10 -70 2 -14 7 -43
10 -65 3 -22 23 -127 44 -234 52 -256 50 -322 -14 -531 -32 -104 -38 -195 -18
-264 34 -115 152 -270 272 -359 124 -91 263 -147 581 -232 167 -44 241 -78
313 -143 116 -105 200 -97 637 68 251 94 370 117 443 86 19 -8 49 -35 70 -64
79 -110 207 -156 432 -156 287 0 611 83 916 235 80 40 108 49 169 54 193 16
476 98 805 235 319 133 818 383 1145 575 45 26 289 172 365 218 306 186 613
417 632 475 14 41 10 123 -12 243 -13 68 -65 267 -115 434 -81 273 -328 1004
-414 1225 -30 75 -83 227 -95 270 -22 75 -33 100 -45 100 -6 0 -4 5 4 10 10 6
11 10 2 10 -6 0 -11 3 -10 8 1 4 -6 25 -16 47 -10 22 -38 92 -63 155 -24 63
-51 129 -59 147 -8 17 -14 34 -14 37 0 17 -246 624 -276 682 -41 80 -64 119
-173 304 -47 80 -90 153 -96 163 -41 71 -207 327 -288 447 -88 127 -270 376
-286 390 -3 3 -19 22 -34 42 -38 51 -235 250 -277 279 -70 50 -111 63 -200 65
-47 1 -101 -3 -120 -8z"/>
</g>
</svg>
